<svg id="Calque_1" data-name="Calque 1" xmlns="http://www.w3.org/2000/svg" viewBox="0 0 1080 1080"><defs><style>.cls-1{fill:#1d1d1b;}.cls-2{fill:#8c8c8c;}.cls-10,.cls-11,.cls-12,.cls-14,.cls-15,.cls-2,.cls-3,.cls-4,.cls-7,.cls-8,.cls-9{stroke:#1d1d1b;}.cls-10,.cls-11,.cls-12,.cls-14,.cls-15,.cls-2,.cls-3,.cls-4,.cls-7,.cls-8{stroke-miterlimit:10;}.cls-15,.cls-2,.cls-3,.cls-4,.cls-7,.cls-8{stroke-width:7px;}.cls-3{fill:#f2c3a0;}.cls-4{fill:#d8968b;}.cls-5{fill:#d35d33;opacity:0.7;}.cls-6{fill:#c4a453;}.cls-7{fill:#fff9e6;}.cls-8{fill:#ff7e3e;}.cls-10,.cls-9{fill:#5c9b56;}.cls-9{stroke-linecap:round;stroke-linejoin:round;}.cls-10,.cls-11,.cls-9{stroke-width:4px;}.cls-11{fill:#aad376;}.cls-12{fill:#fffede;stroke-width:5px;}.cls-13{fill:#d65f75;}.cls-14{fill:#ffdc7b;stroke-width:8px;}.cls-15{fill:#595959;}</style></defs><title>Plan de travail 1</title><ellipse class="cls-1" cx="538.41" cy="744.61" rx="193.31" ry="46.77"/><ellipse class="cls-2" cx="538.41" cy="549.86" rx="236.98" ry="98.5"/><path class="cls-3" d="M616.85,630.46l-30.6-19.16a82.16,82.16,0,0,1-26-113.23l16.69-26.65a82.16,82.16,0,0,1,113.23-26l30.59,19.16c10.46,6.55-2.29,46.28-32.77,95S631.06,639.36,616.85,630.46Z"/><path class="cls-3" d="M605.61,623.17,575,604a82.15,82.15,0,0,1-26-113.23l16.69-26.65a82.16,82.16,0,0,1,113.23-26l30.59,19.16c10.46,6.55-2.29,46.28-32.77,95S619.83,632.07,605.61,623.17Z"/><path class="cls-4" d="M649.41,611.62c-5.84,4.84-22.89-14.59-22.89-14.59a37,37,0,0,1-11.91-51l7.49-12a37,37,0,0,1,51.06-11.55s27.22,11.68,25.29,16.92c-2.5,6.75-8.23,13.81-21.92,35.67S656.71,605.58,649.41,611.62Z"/><path class="cls-4" d="M639.47,604.46c-5.84,4.83-22.89-14.59-22.89-14.59a37,37,0,0,1-11.91-51l7.49-12a37,37,0,0,1,51.06-11.55s27.22,11.69,25.29,16.92c-2.5,6.76-8.23,13.81-21.92,35.67S646.77,598.42,639.47,604.46Z"/><path class="cls-5" d="M528.62,651.53C632.85,653.1,709.37,630,748,599.47c0-45.58-115.9-88.2-215.57-88.2-94.77,0-203.85,27.56-203.85,88.55C380.17,635,445.07,650.27,528.62,651.53Z"/><path class="cls-1" d="M532.47,518.27c47.21,0,100.52,9.91,142.59,26.52,38.83,15.32,63,34.31,65.71,51.43C722.25,610,696,621.55,664.68,629.85c-37,9.79-79.41,14.76-126.07,14.76-3.27,0-6.59,0-9.89-.08-83.36-1.26-144.81-16.63-192.94-48.34,2.49-29,34.58-46.9,61.66-57,35.91-13.33,85.13-21,135-21m0-7c-94.77,0-203.85,27.56-203.85,88.55,51.55,35.17,116.45,50.45,200,51.71q5,.08,10,.08c99.13,0,172-22.6,209.43-52.14,0-45.58-115.9-88.2-215.57-88.2Z"/><path class="cls-6" d="M486,603.52c-3.21-.38-6.24-.78-9-1.18l-2.13-.3-13.06-38.66-81-260,16.31-5.08,81,259.93,13.17,45.92Z"/><path class="cls-1" d="M394.77,302.68,474.7,559.26,486.4,600c-3-.36-6-.75-8.95-1.16l-12.38-36.62L385.14,305.68l9.63-3m4.6-8.77L392.69,296l-9.63,3-6.68,2.08,2.08,6.69,79.93,256.58,0,.08,0,.08,12.38,36.62,1.37,4.08,4.26.61c2.82.4,5.89.8,9.12,1.18L496,608.24l-2.91-10.13-11.69-40.78,0-.08,0-.07L401.45,300.59l-2.08-6.68Z"/><path class="cls-6" d="M483,603.4c-3.35-.4-6.49-.82-9.34-1.24l-1.9-.28-17.71-39.51L348.62,311.29l15.75-6.62,105.42,251,19,48.43Z"/><path class="cls-1" d="M362.5,309.25,466.56,557l16.88,42.9c-3.16-.38-6.27-.79-9.25-1.23l-16.93-37.76L353.2,313.16l9.3-3.91m3.74-9.16-6.45,2.71-9.3,3.9L344,309.41l2.71,6.46L450.81,563.65l0,.08,0,.07,16.93,37.76,1.57,3.5,3.8.56c2.89.43,6.06.85,9.42,1.26l11.66,1.41L490,597.36l-16.88-42.89,0-.07,0-.08L369,306.54l-2.71-6.45Z"/><path class="cls-3" d="M644.18,665.53,626.85,649.4c-21.78-20.28-14.38-63.64,16.54-96.85l21.42-23c30.91-33.21,73.63-43.7,95.41-23.42l17.33,16.13c5.93,5.51-16.69,39.7-55.82,81.74S652.23,673,644.18,665.53Z"/><path class="cls-3" d="M630.9,653.38l-17.33-16.13c-21.78-20.27-14.38-63.63,16.54-96.84l21.42-23c30.91-33.21,73.63-43.69,95.41-23.42l17.33,16.13c5.93,5.52-16.69,39.71-55.83,81.75S639,660.88,630.9,653.38Z"/><path class="cls-4" d="M675.29,649.06c-6.06,4.2-12.89-12.29-12.89-12.29-9.85-9.17-6.58-28.69,7.3-43.6l9.62-10.33c13.88-14.92,33.12-19.57,43-10.4,0,0,17.14,9.75,14,14.26-4.1,5.82-10.78,11.92-28.35,30.8S682.84,643.81,675.29,649.06Z"/><path class="cls-4" d="M663,637c-6.05,4.21-12.88-12.29-12.88-12.29-9.85-9.17-6.58-28.69,7.3-43.6L667,570.79c13.88-14.91,33.12-19.57,43-10.4,0,0,17.14,9.75,14,14.26-4.1,5.82-10.78,11.93-28.35,30.8S670.51,631.76,663,637Z"/><path class="cls-7" d="M537.59,592.2c-37.22,15.13-62,12.9-68.11.08.12.34.25.67.39,1,10.92,26.89,40.59,40.23,78.28,24.92s69.16-53.5,58.23-80.39l-.42-1C610.53,550.26,574.81,577.08,537.59,592.2Z"/><path class="cls-7" d="M605.77,536.32c5.43,13.36-30.48,40.57-68.18,55.88s-62.9,12.94-68.33-.42,11-32.64,48.67-48S600.34,523,605.77,536.32Z"/><path class="cls-8" d="M569.42,549c2.84,7-15.93,21.2-35.63,29.2s-32.87,6.77-35.7-.22,5.73-17,25.43-25.06S566.58,542,569.42,549Z"/><path class="cls-9" d="M569.57,526.78s-3.35,8.07-14.45,15.68-19.83,7.82-19.83,7.82L528,539.67s9.55.88,20.61-6.7,13.67-16.8,13.67-16.8Z"/><path class="cls-10" d="M562,515.79c2.14,3.13-3.44,11.45-12.91,17.93s-19.23,8.7-21.38,5.57,3.8-10.93,13.26-17.41S559.89,512.67,562,515.79Z"/><path class="cls-11" d="M555.74,519.65c1.13,1.65-2.72,6.64-8.83,10.83s-12.16,6-13.29,4.33,2.91-6.37,9-10.55S554.62,518,555.74,519.65Z"/><path class="cls-7" d="M482.31,574.21c-30.07,26.64-54.2,32.78-64.21,22.72l.7.81c19.24,21.73,51.65,24.45,82.12-2.53s47.43-73.44,28.19-95.17l-.73-.78C537.16,510.41,512.39,547.57,482.31,574.21Z"/><path class="cls-7" d="M528,498.84c9.56,10.79-15.27,48.39-45.73,75.37s-55,33.12-64.58,22.32-.5-34.44,30-61.41S518.48,488,528,498.84Z"/><path class="cls-8" d="M498,522.9c5,5.64-8,25.29-23.9,39.39s-28.75,17.3-33.75,11.66-.26-18,15.66-32.09S493,517.26,498,522.9Z"/><path class="cls-9" d="M434.87,559.64s-7.33,4.76-20.78,4.76-20.78-4.76-20.78-4.76V546.77s7.37,6.13,20.78,6.13,20.78-6.13,20.78-6.13Z"/><path class="cls-10" d="M434.87,546.32c0,3.79-9.3,7.49-20.78,7.49s-20.78-3.7-20.78-7.49,9.3-6.87,20.78-6.87S434.87,542.52,434.87,546.32Z"/><path class="cls-11" d="M427.5,545.94c0,2-6,3.94-13.41,3.94s-13.41-1.94-13.41-3.94,6-3.61,13.41-3.61S427.5,544,427.5,545.94Z"/><path class="cls-9" d="M470.07,571.08s-5.66,6.66-18.55,10.52S430.25,583,430.25,583l-3.69-12.33s8.82,3.77,21.67-.07,18.15-11.82,18.15-11.82Z"/><path class="cls-10" d="M466.25,558.32c1.09,3.63-6.77,9.84-17.76,13.13s-21,2.4-22.06-1.23,6.95-9.25,17.95-12.53S465.17,554.69,466.25,558.32Z"/><path class="cls-11" d="M459.08,560.07c.57,1.91-4.62,5.49-11.72,7.61s-13.4,2-14,.07,4.72-5.18,11.81-7.3S458.51,558.16,459.08,560.07Z"/><path class="cls-9" d="M505.73,599.82S499,594.25,495,581.41s-1.67-21.25-1.67-21.25l12.27-3.85s-3.64,8.87.37,21.67S518,596,518,596Z"/><path class="cls-10" d="M518.44,595.83c-3.62,1.14-9.94-6.63-13.37-17.58s-2.68-20.94.94-22.07S515.34,563,518.78,574,522.06,594.7,518.44,595.83Z"/><path class="cls-11" d="M516.59,588.69c-1.9.6-5.55-4.55-7.77-11.62s-2.15-13.38-.25-14,5.24,4.65,7.45,11.71S518.49,588.09,516.59,588.69Z"/><path class="cls-9" d="M569.51,599.47s-8.72-.45-19.61-8.36-14-16.07-14-16.07l7.57-10.41s2.36,9.3,13.2,17.18,20.42,7.26,20.42,7.26Z"/><path class="cls-10" d="M577.35,588.7c-2.23,3.07-11.94.59-21.22-6.15s-14.64-15.21-12.41-18.28,11.57-.09,20.85,6.66S579.58,585.63,577.35,588.7Z"/><path class="cls-11" d="M571.6,584.06c-1.17,1.61-7.17-.34-13.16-4.7s-9.7-9.45-8.53-11.06,7,.61,13,5S572.78,582.45,571.6,584.06Z"/><polygon class="cls-12" points="339.87 520.51 340.72 511.18 348.59 517.97 352 510.47 358.53 519.33 364.16 514.4 368.71 524.46 376.02 522.57 378.14 532.85 386.4 534.18 385.89 543.68 394.31 548.12 391.21 555.89 398.95 562.99 393.58 568.29 399.88 577.36 392.76 579.66 397.01 589.81 388.83 588.89 390.62 599.13 382.18 595.08 381.32 604.4 373.45 597.62 370.04 605.11 363.51 596.25 357.88 601.19 353.33 591.13 346.02 593.02 343.9 582.74 335.64 581.4 336.15 571.91 327.73 567.47 330.83 559.69 323.09 552.6 328.46 547.29 322.16 538.23 329.29 535.92 325.03 525.77 333.21 526.69 331.43 516.46 339.87 520.51"/><polygon class="cls-12" points="339.95 520.46 340.8 511.13 348.67 517.92 352.08 510.43 358.61 519.28 364.25 514.35 368.8 524.41 376.1 522.52 378.23 532.8 386.49 534.14 385.98 543.63 394.39 548.07 391.3 555.84 399.04 562.94 393.67 568.24 399.97 577.31 392.84 579.62 397.1 589.76 388.91 588.85 390.7 599.08 382.26 595.03 381.41 604.35 373.54 597.57 370.13 605.06 363.6 596.21 357.97 601.14 353.42 591.08 346.11 592.97 343.99 582.69 335.72 581.35 336.23 571.86 327.82 567.42 330.91 559.64 323.18 552.55 328.55 547.25 322.24 538.18 329.37 535.87 325.12 525.73 333.3 526.64 331.51 516.41 339.95 520.46"/><polygon class="cls-12" points="340.04 520.41 340.89 511.08 348.76 517.87 352.17 510.38 358.7 519.23 364.33 514.3 368.88 524.36 376.19 522.47 378.31 532.75 386.58 534.09 386.07 543.58 394.48 548.02 391.39 555.79 399.13 562.89 393.75 568.19 400.06 577.26 392.93 579.57 397.19 589.71 389 588.8 390.79 599.03 382.35 594.98 381.5 604.3 373.63 597.52 370.22 605.01 363.69 596.16 358.06 601.09 353.51 591.03 346.2 592.92 344.07 582.64 335.81 581.3 336.32 571.81 327.91 567.37 331 559.6 323.26 552.5 328.64 547.2 322.33 538.13 329.46 535.83 325.2 525.68 333.39 526.59 331.6 516.36 340.04 520.41"/><polygon class="cls-12" points="340.13 520.36 340.98 511.04 348.85 517.82 352.26 510.33 358.79 519.18 364.42 514.25 368.97 524.31 376.28 522.42 378.4 532.7 386.66 534.04 386.15 543.53 394.57 547.97 391.48 555.75 399.21 562.84 393.84 568.14 400.14 577.21 393.02 579.52 397.27 589.66 389.09 588.75 390.88 598.98 382.44 594.93 381.58 604.25 373.71 597.47 370.31 604.97 363.78 596.11 358.14 601.04 353.59 590.98 346.29 592.87 344.16 582.59 335.9 581.25 336.41 571.76 328 567.33 331.09 559.55 323.35 552.45 328.72 547.15 322.42 538.08 329.55 535.77 325.29 525.63 333.48 526.54 331.69 516.31 340.13 520.36"/><polygon class="cls-12" points="340.21 520.31 341.06 510.99 348.93 517.77 352.35 510.28 358.87 519.13 364.51 514.2 369.06 524.26 376.36 522.37 378.49 532.65 386.75 533.99 386.24 543.48 394.65 547.92 391.56 555.7 399.3 562.79 393.93 568.1 400.23 577.16 393.1 579.47 397.36 589.62 389.18 588.7 390.96 598.93 382.52 594.88 381.67 604.21 373.8 597.42 370.39 604.92 363.86 596.06 358.23 600.99 353.68 590.93 346.37 592.82 344.25 582.54 335.99 581.21 336.49 571.71 328.08 567.27 331.17 559.5 323.44 552.4 328.81 547.1 322.5 538.03 329.63 535.73 325.38 525.58 333.56 526.5 331.77 516.26 340.21 520.31"/><polygon class="cls-12" points="340.3 520.26 341.15 510.94 349.02 517.72 352.43 510.23 358.96 519.09 364.6 514.15 369.14 524.21 376.45 522.32 378.57 532.6 386.84 533.94 386.33 543.43 394.74 547.87 391.65 555.65 399.39 562.75 394.01 568.05 400.32 577.11 393.19 579.42 397.45 589.57 389.26 588.65 391.05 598.88 382.61 594.83 381.76 604.16 373.89 597.37 370.48 604.87 363.95 596.01 358.31 600.94 353.77 590.88 346.46 592.77 344.34 582.49 336.07 581.16 336.58 571.66 328.17 567.23 331.26 559.45 323.52 552.35 328.9 547.05 322.59 537.98 329.72 535.68 325.46 525.53 333.65 526.45 331.86 516.21 340.3 520.26"/><polygon class="cls-12" points="340.39 520.21 341.24 510.89 349.11 517.67 352.52 510.18 359.05 519.04 364.68 514.1 369.23 524.16 376.54 522.27 378.66 532.55 386.93 533.89 386.42 543.38 394.83 547.82 391.74 555.6 399.47 562.7 394.1 568 400.4 577.06 393.28 579.37 397.53 589.52 389.35 588.6 391.14 598.84 382.7 594.78 381.85 604.11 373.98 597.32 370.56 604.82 364.04 595.96 358.4 600.89 353.85 590.83 346.55 592.73 344.42 582.44 336.16 581.11 336.67 571.61 328.25 567.18 331.35 559.4 323.61 552.3 328.98 547 322.68 537.93 329.81 535.63 325.55 525.48 333.74 526.4 331.95 516.16 340.39 520.21"/><polygon class="cls-12" points="340.47 520.16 341.32 510.84 349.19 517.63 352.61 510.13 359.13 518.99 364.77 514.05 369.32 524.11 376.62 522.22 378.75 532.5 387.01 533.84 386.5 543.34 394.92 547.77 391.82 555.55 399.56 562.65 394.19 567.95 400.49 577.01 393.37 579.32 397.62 589.47 389.44 588.55 391.22 598.79 382.78 594.74 381.93 604.06 374.06 597.27 370.65 604.77 364.12 595.91 358.49 600.85 353.94 590.78 346.63 592.68 344.51 582.39 336.25 581.06 336.75 571.56 328.34 567.13 331.44 559.35 323.7 552.25 329.07 546.95 322.77 537.88 329.89 535.58 325.64 525.43 333.82 526.35 332.03 516.11 340.47 520.16"/><polygon class="cls-12" points="340.56 520.11 341.41 510.79 349.28 517.58 352.69 510.08 359.22 518.94 364.86 514 369.4 524.07 376.71 522.17 378.83 532.46 387.1 533.79 386.59 543.29 395 547.72 391.91 555.5 399.65 562.6 394.27 567.9 400.58 576.97 393.45 579.27 397.71 589.42 389.52 588.5 391.31 598.74 382.87 594.69 382.02 604.01 374.15 597.22 370.74 604.72 364.21 595.86 358.58 600.8 354.03 590.73 346.72 592.63 344.6 582.34 336.33 581.01 336.84 571.51 328.43 567.08 331.52 559.3 323.78 552.2 329.16 546.9 322.85 537.83 329.98 535.53 325.73 525.38 333.91 526.3 332.12 516.06 340.56 520.11"/><polygon class="cls-12" points="340.65 520.06 341.5 510.74 349.37 517.53 352.78 510.03 359.31 518.89 364.94 513.95 369.49 524.02 376.8 522.12 378.92 532.41 387.19 533.74 386.68 543.24 395.09 547.67 392 555.45 399.73 562.55 394.36 567.85 400.67 576.92 393.54 579.22 397.79 589.37 389.61 588.45 391.4 598.69 382.96 594.64 382.11 603.96 374.24 597.17 370.83 604.67 364.3 595.81 358.66 600.75 354.11 590.68 346.81 592.58 344.68 582.29 336.42 580.96 336.93 571.46 328.52 567.03 331.61 559.25 323.87 552.15 329.24 546.85 322.94 537.78 330.07 535.48 325.81 525.33 334 526.25 332.21 516.01 340.65 520.06"/><polygon class="cls-12" points="340.73 520.01 341.59 510.69 349.46 517.48 352.87 509.98 359.39 518.84 365.03 513.9 369.58 523.97 376.88 522.07 379.01 532.36 387.27 533.69 386.76 543.19 395.18 547.62 392.08 555.4 399.82 562.5 394.45 567.8 400.75 576.87 393.63 579.17 397.88 589.32 389.7 588.4 391.49 598.64 383.05 594.59 382.19 603.91 374.32 597.12 370.91 604.62 364.38 595.76 358.75 600.7 354.2 590.63 346.89 592.53 344.77 582.25 336.51 580.91 337.01 571.41 328.6 566.98 331.69 559.2 323.96 552.1 329.33 546.8 323.03 537.74 330.15 535.43 325.9 525.28 334.08 526.2 332.29 515.96 340.73 520.01"/><polygon class="cls-12" points="340.82 519.97 341.67 510.64 349.54 517.43 352.95 509.93 359.48 518.79 365.12 513.85 369.67 523.92 376.97 522.02 379.1 532.31 387.36 533.64 386.85 543.14 395.26 547.57 392.17 555.35 399.91 562.45 394.54 567.75 400.84 576.82 393.71 579.12 397.97 589.27 389.78 588.35 391.57 598.59 383.13 594.54 382.28 603.86 374.41 597.08 371 604.57 364.47 595.71 358.84 600.65 354.29 590.59 346.98 592.48 344.86 582.2 336.59 580.86 337.1 571.36 328.69 566.93 331.78 559.15 324.05 552.05 329.42 546.75 323.11 537.68 330.24 535.38 325.99 525.23 334.17 526.15 332.38 515.91 340.82 519.97"/><polygon class="cls-12" points="340.91 519.91 341.76 510.59 349.63 517.38 353.04 509.88 359.57 518.74 365.2 513.8 369.75 523.87 377.06 521.98 379.18 532.26 387.45 533.59 386.94 543.09 395.35 547.52 392.26 555.3 399.99 562.4 394.62 567.7 400.93 576.77 393.8 579.07 398.05 589.22 389.87 588.3 391.66 598.54 383.22 594.49 382.37 603.81 374.5 597.02 371.09 604.52 364.56 595.66 358.92 600.6 354.37 590.54 347.07 592.43 344.94 582.15 336.68 580.81 337.19 571.32 328.78 566.88 331.87 559.1 324.13 552 329.5 546.7 323.2 537.64 330.33 535.33 326.07 525.18 334.26 526.1 332.47 515.87 340.91 519.91"/><polygon class="cls-12" points="340.99 519.87 341.85 510.54 349.72 517.33 353.13 509.83 359.65 518.69 365.29 513.76 369.84 523.82 377.14 521.93 379.27 532.21 387.53 533.54 387.02 543.04 395.44 547.47 392.34 555.25 400.08 562.35 394.71 567.65 401.01 576.72 393.89 579.02 398.14 589.17 389.96 588.25 391.75 598.49 383.31 594.44 382.45 603.76 374.58 596.98 371.17 604.47 364.64 595.61 359.01 600.55 354.46 590.49 347.15 592.38 345.03 582.1 336.77 580.76 337.28 571.27 328.86 566.83 331.96 559.05 324.22 551.96 329.59 546.65 323.29 537.59 330.41 535.28 326.16 525.13 334.34 526.05 332.55 515.82 340.99 519.87"/><polygon class="cls-12" points="341.08 519.82 341.93 510.49 349.8 517.28 353.21 509.78 359.74 518.64 365.38 513.71 369.93 523.77 377.23 521.88 379.36 532.16 387.62 533.5 387.11 542.99 395.52 547.42 392.43 555.2 400.17 562.3 394.8 567.6 401.1 576.67 393.97 578.97 398.23 589.12 390.04 588.2 391.83 598.44 383.39 594.39 382.54 603.71 374.67 596.93 371.26 604.42 364.73 595.57 359.1 600.5 354.55 590.44 347.24 592.33 345.12 582.05 336.85 580.71 337.36 571.22 328.95 566.78 332.04 559 324.31 551.91 329.68 546.6 323.37 537.54 330.5 535.23 326.25 525.09 334.43 526 332.64 515.77 341.08 519.82"/><polygon class="cls-12" points="341.17 519.77 342.02 510.44 349.89 517.23 353.3 509.74 359.83 518.59 365.46 513.66 370.01 523.72 377.32 521.83 379.44 532.11 387.71 533.45 387.2 542.94 395.61 547.38 392.52 555.15 400.25 562.25 394.88 567.55 401.19 576.62 394.06 578.92 398.31 589.07 390.13 588.15 391.92 598.39 383.48 594.34 382.63 603.66 374.76 596.88 371.35 604.37 364.82 595.51 359.18 600.45 354.63 590.39 347.33 592.28 345.2 582 336.94 580.66 337.45 571.17 329.04 566.73 332.13 558.95 324.39 551.86 329.76 546.55 323.46 537.49 330.59 535.18 326.33 525.04 334.52 525.95 332.73 515.72 341.17 519.77"/><polygon class="cls-12" points="341.25 519.72 342.11 510.39 349.98 517.18 353.39 509.69 359.92 518.54 365.55 513.61 370.1 523.67 377.41 521.78 379.53 532.06 387.79 533.4 387.29 542.89 395.7 547.33 392.61 555.11 400.34 562.2 394.97 567.5 401.27 576.57 394.15 578.88 398.4 589.02 390.22 588.11 392.01 598.34 383.57 594.29 382.71 603.62 374.84 596.83 371.43 604.32 364.9 595.47 359.27 600.4 354.72 590.34 347.42 592.23 345.29 581.95 337.03 580.61 337.54 571.12 329.12 566.68 332.22 558.9 324.48 551.81 329.85 546.51 323.55 537.44 330.68 535.13 326.42 524.99 334.6 525.9 332.81 515.67 341.25 519.72"/><polygon class="cls-12" points="341.34 519.67 342.19 510.35 350.06 517.13 353.47 509.64 360 518.5 365.64 513.56 370.19 523.62 377.49 521.73 379.62 532.01 387.88 533.35 387.37 542.84 395.78 547.28 392.69 555.06 400.43 562.15 395.06 567.46 401.36 576.52 394.23 578.83 398.49 588.98 390.3 588.06 392.09 598.29 383.65 594.24 382.8 603.57 374.93 596.78 371.52 604.27 364.99 595.42 359.36 600.35 354.81 590.29 347.5 592.18 345.38 581.9 337.11 580.56 337.62 571.07 329.21 566.63 332.3 558.86 324.57 551.76 329.94 546.46 323.63 537.39 330.76 535.09 326.51 524.94 334.69 525.86 332.9 515.62 341.34 519.67"/><polygon class="cls-12" points="341.43 519.62 342.28 510.3 350.15 517.08 353.56 509.59 360.09 518.45 365.72 513.51 370.27 523.57 377.58 521.68 379.7 531.96 387.97 533.3 387.46 542.79 395.87 547.23 392.78 555.01 400.51 562.1 395.14 567.41 401.45 576.47 394.32 578.78 398.57 588.92 390.39 588.01 392.18 598.24 383.74 594.19 382.89 603.52 375.02 596.73 371.61 604.23 365.08 595.37 359.44 600.3 354.9 590.24 347.59 592.13 345.46 581.85 337.2 580.51 337.71 571.02 329.3 566.59 332.39 558.81 324.65 551.71 330.03 546.41 323.72 537.34 330.85 535.04 326.59 524.89 334.78 525.81 332.99 515.57 341.43 519.62"/><polygon class="cls-12" points="341.51 519.57 342.37 510.25 350.24 517.03 353.65 509.54 360.18 518.4 365.81 513.46 370.36 523.52 377.67 521.63 379.79 531.91 388.05 533.25 387.55 542.74 395.96 547.18 392.87 554.96 400.6 562.05 395.23 567.36 401.53 576.42 394.41 578.73 398.66 588.88 390.48 587.96 392.27 598.2 383.83 594.14 382.97 603.47 375.11 596.68 371.69 604.18 365.17 595.32 359.53 600.25 354.98 590.19 347.68 592.08 345.55 581.8 337.29 580.47 337.8 570.97 329.38 566.54 332.48 558.76 324.74 551.66 330.11 546.36 323.81 537.29 330.94 534.99 326.68 524.84 334.86 525.76 333.07 515.52 341.51 519.57"/><polygon class="cls-12" points="341.6 519.52 342.45 510.2 350.32 516.99 353.73 509.49 360.26 518.35 365.9 513.41 370.45 523.47 377.75 521.58 379.88 531.86 388.14 533.2 387.63 542.7 396.04 547.13 392.95 554.91 400.69 562.01 395.32 567.31 401.62 576.37 394.49 578.68 398.75 588.83 390.56 587.91 392.35 598.14 383.91 594.1 383.06 603.42 375.19 596.63 371.78 604.13 365.25 595.27 359.62 600.21 355.07 590.14 347.76 592.03 345.64 581.75 337.38 580.42 337.88 570.92 329.47 566.49 332.56 558.71 324.83 551.61 330.2 546.31 323.89 537.24 331.02 534.94 326.77 524.79 334.95 525.71 333.16 515.47 341.6 519.52"/><polygon class="cls-12" points="341.69 519.47 342.54 510.15 350.41 516.94 353.82 509.44 360.35 518.3 365.98 513.36 370.53 523.42 377.84 521.53 379.96 531.81 388.23 533.15 387.72 542.65 396.13 547.08 393.04 554.86 400.78 561.96 395.4 567.26 401.71 576.33 394.58 578.63 398.84 588.78 390.65 587.86 392.44 598.1 384 594.05 383.15 603.37 375.28 596.58 371.87 604.08 365.34 595.22 359.7 600.16 355.16 590.09 347.85 591.99 345.73 581.7 337.46 580.37 337.97 570.87 329.56 566.44 332.65 558.66 324.91 551.56 330.29 546.26 323.98 537.19 331.11 534.89 326.85 524.74 335.04 525.66 333.25 515.42 341.69 519.47"/><polygon class="cls-12" points="341.78 519.42 342.63 510.1 350.5 516.89 353.91 509.39 360.44 518.25 366.07 513.31 370.62 523.38 377.93 521.48 380.05 531.76 388.31 533.1 387.81 542.6 396.22 547.03 393.13 554.81 400.86 561.91 395.49 567.21 401.8 576.27 394.67 578.58 398.92 588.73 390.74 587.81 392.53 598.05 384.09 594 383.24 603.32 375.37 596.53 371.95 604.03 365.43 595.17 359.79 600.11 355.24 590.04 347.94 591.94 345.81 581.65 337.55 580.32 338.06 570.82 329.64 566.39 332.74 558.61 325 551.51 330.37 546.21 324.07 537.14 331.2 534.84 326.94 524.69 335.13 525.61 333.34 515.37 341.78 519.42"/><polygon class="cls-12" points="341.86 519.37 342.71 510.05 350.58 516.84 354 509.34 360.52 518.2 366.16 513.26 370.71 523.33 378.01 521.43 380.14 531.72 388.4 533.05 387.89 542.55 396.31 546.98 393.21 554.76 400.95 561.86 395.58 567.16 401.88 576.23 394.75 578.53 399.01 588.68 390.82 587.76 392.61 598 384.17 593.95 383.32 603.27 375.45 596.48 372.04 603.98 365.51 595.12 359.88 600.06 355.33 589.99 348.02 591.89 345.9 581.61 337.63 580.27 338.14 570.77 329.73 566.34 332.82 558.56 325.09 551.46 330.46 546.16 324.15 537.09 331.28 534.79 327.03 524.64 335.21 525.56 333.42 515.32 341.86 519.37"/><polygon class="cls-12" points="341.95 519.32 342.8 510 350.67 516.79 354.08 509.29 360.61 518.15 366.25 513.21 370.79 523.28 378.1 521.38 380.23 531.67 388.49 533 387.98 542.5 396.39 546.93 393.3 554.71 401.04 561.81 395.66 567.11 401.97 576.18 394.84 578.48 399.1 588.63 390.91 587.71 392.7 597.95 384.26 593.9 383.41 603.22 375.54 596.43 372.13 603.93 365.6 595.07 359.97 600.01 355.42 589.95 348.11 591.84 345.99 581.55 337.72 580.22 338.23 570.72 329.82 566.29 332.91 558.51 325.17 551.41 330.55 546.11 324.24 537.04 331.37 534.74 327.11 524.59 335.3 525.51 333.51 515.27 341.95 519.32"/><polygon class="cls-12" points="342.04 519.27 342.89 509.95 350.76 516.74 354.17 509.24 360.7 518.1 366.33 513.16 370.88 523.23 378.19 521.34 380.31 531.62 388.57 532.95 388.07 542.45 396.48 546.88 393.39 554.66 401.12 561.76 395.75 567.06 402.06 576.13 394.93 578.43 399.18 588.58 391 587.66 392.79 597.9 384.35 593.85 383.5 603.17 375.63 596.38 372.22 603.88 365.69 595.02 360.05 599.96 355.5 589.9 348.2 591.79 346.07 581.51 337.81 580.17 338.32 570.67 329.91 566.24 333 558.46 325.26 551.36 330.63 546.06 324.33 537 331.46 534.69 327.2 524.54 335.38 525.46 333.6 515.22 342.04 519.27"/><polygon class="cls-12" points="342.12 519.23 342.98 509.9 350.85 516.69 354.26 509.19 360.78 518.05 366.42 513.12 370.97 523.18 378.27 521.28 380.4 531.57 388.66 532.9 388.15 542.4 396.56 546.83 393.47 554.61 401.21 561.71 395.84 567.01 402.14 576.08 395.01 578.38 399.27 588.53 391.09 587.61 392.88 597.85 384.44 593.8 383.58 603.12 375.71 596.34 372.3 603.83 365.77 594.97 360.14 599.91 355.59 589.85 348.28 591.74 346.16 581.46 337.9 580.12 338.4 570.63 329.99 566.19 333.08 558.41 325.35 551.31 330.72 546.01 324.42 536.95 331.54 534.64 327.29 524.49 335.47 525.41 333.68 515.17 342.12 519.23"/><polygon class="cls-12" points="342.21 519.18 343.06 509.85 350.93 516.64 354.34 509.14 360.87 518 366.5 513.07 371.06 523.13 378.36 521.24 380.49 531.52 388.75 532.85 388.24 542.35 396.65 546.78 393.56 554.56 401.3 561.66 395.92 566.96 402.23 576.03 395.1 578.33 399.36 588.48 391.17 587.56 392.96 597.8 384.52 593.75 383.67 603.07 375.8 596.29 372.39 603.78 365.86 594.92 360.23 599.86 355.68 589.8 348.37 591.69 346.25 581.41 337.98 580.07 338.49 570.58 330.08 566.14 333.17 558.36 325.44 551.26 330.81 545.96 324.5 536.9 331.63 534.59 327.38 524.44 335.56 525.36 333.77 515.13 342.21 519.18"/><polygon class="cls-12" points="342.3 519.13 343.15 509.8 351.02 516.59 354.43 509.09 360.96 517.95 366.59 513.02 371.14 523.08 378.45 521.19 380.57 531.47 388.84 532.8 388.33 542.3 396.74 546.74 393.65 554.51 401.38 561.61 396.01 566.91 402.32 575.98 395.19 578.28 399.44 588.43 391.26 587.51 393.05 597.75 384.61 593.7 383.76 603.02 375.89 596.24 372.48 603.73 365.95 594.88 360.31 599.81 355.76 589.75 348.46 591.64 346.33 581.36 338.07 580.02 338.58 570.53 330.17 566.09 333.26 558.31 325.52 551.22 330.89 545.91 324.59 536.85 331.72 534.54 327.46 524.39 335.65 525.31 333.86 515.08 342.3 519.13"/><polygon class="cls-12" points="342.38 519.08 343.24 509.75 351.11 516.54 354.52 509.05 361.05 517.9 366.68 512.97 371.23 523.03 378.54 521.14 380.66 531.42 388.92 532.76 388.41 542.25 396.83 546.68 393.73 554.47 401.47 561.56 396.1 566.86 402.4 575.93 395.27 578.24 399.53 588.38 391.35 587.47 393.13 597.7 384.69 593.65 383.84 602.97 375.97 596.19 372.56 603.68 366.03 594.83 360.4 599.76 355.85 589.7 348.54 591.59 346.42 581.31 338.16 579.97 338.67 570.48 330.25 566.04 333.35 558.26 325.61 551.17 330.98 545.87 324.68 536.8 331.8 534.49 327.55 524.35 335.73 525.26 333.94 515.03 342.38 519.08"/><polygon class="cls-12" points="342.47 519.03 343.32 509.7 351.19 516.49 354.6 509 361.13 517.85 366.77 512.92 371.31 522.98 378.62 521.09 380.75 531.37 389.01 532.71 388.5 542.2 396.91 546.64 393.82 554.41 401.56 561.51 396.19 566.81 402.49 575.88 395.36 578.18 399.62 588.33 391.43 587.42 393.22 597.65 384.78 593.6 383.93 602.92 376.06 596.14 372.65 603.63 366.12 594.78 360.49 599.71 355.94 589.65 348.63 591.54 346.51 581.26 338.24 579.92 338.75 570.43 330.34 565.99 333.43 558.22 325.69 551.12 331.07 545.82 324.76 536.75 331.89 534.45 327.64 524.3 335.82 525.21 334.03 514.98 342.47 519.03"/><polygon class="cls-12" points="342.56 518.98 343.41 509.66 351.28 516.44 354.69 508.95 361.22 517.8 366.85 512.87 371.4 522.93 378.71 521.04 380.83 531.32 389.1 532.66 388.59 542.15 397 546.59 393.91 554.37 401.64 561.46 396.27 566.76 402.58 575.83 395.45 578.14 399.7 588.28 391.52 587.37 393.31 597.6 384.87 593.55 384.02 602.88 376.15 596.09 372.74 603.59 366.21 594.73 360.57 599.66 356.02 589.6 348.72 591.49 346.59 581.21 338.33 579.87 338.84 570.38 330.43 565.95 333.52 558.17 325.78 551.07 331.15 545.77 324.85 536.7 331.98 534.39 327.72 524.25 335.91 525.16 334.12 514.93 342.56 518.98"/><polygon class="cls-12" points="342.64 518.93 343.5 509.61 351.37 516.39 354.78 508.9 361.31 517.75 366.94 512.82 371.49 522.88 378.8 520.99 380.92 531.27 389.18 532.61 388.67 542.1 397.09 546.54 393.99 554.32 401.73 561.41 396.36 566.72 402.66 575.78 395.54 578.09 399.79 588.24 391.61 587.32 393.4 597.55 384.96 593.5 384.1 602.83 376.23 596.04 372.82 603.54 366.3 594.68 360.66 599.61 356.11 589.55 348.81 591.44 346.68 581.16 338.42 579.83 338.93 570.33 330.51 565.9 333.61 558.12 325.87 551.02 331.24 545.72 324.94 536.65 332.06 534.35 327.81 524.2 335.99 525.12 334.2 514.88 342.64 518.93"/><polygon class="cls-12" points="342.73 518.88 343.58 509.56 351.45 516.34 354.86 508.85 361.39 517.71 367.03 512.77 371.58 522.83 378.88 520.94 381.01 531.22 389.27 532.56 388.76 542.05 397.17 546.49 394.08 554.27 401.82 561.37 396.45 566.67 402.75 575.73 395.62 578.04 399.88 588.19 391.69 587.27 393.48 597.5 385.04 593.45 384.19 602.78 376.32 595.99 372.91 603.49 366.38 594.63 360.75 599.56 356.2 589.5 348.89 591.39 346.77 581.11 338.5 579.78 339.01 570.28 330.6 565.85 333.69 558.07 325.96 550.97 331.33 545.67 325.02 536.6 332.15 534.3 327.9 524.15 336.08 525.07 334.29 514.83 342.73 518.88"/><polygon class="cls-12" points="342.82 518.83 343.67 509.51 351.54 516.29 354.95 508.8 361.48 517.66 367.11 512.72 371.66 522.78 378.97 520.89 381.09 531.17 389.36 532.51 388.85 542 397.26 546.44 394.17 554.22 401.9 561.32 396.53 566.62 402.84 575.68 395.71 577.99 399.96 588.14 391.78 587.22 393.57 597.46 385.13 593.4 384.28 602.73 376.41 595.94 373 603.44 366.47 594.58 360.83 599.51 356.29 589.45 348.98 591.35 346.86 581.06 338.59 579.73 339.1 570.23 330.69 565.8 333.78 558.02 326.04 550.92 331.42 545.62 325.11 536.55 332.24 534.25 327.98 524.1 336.17 525.02 334.38 514.78 342.82 518.83"/><polygon class="cls-12" points="342.9 518.78 343.76 509.46 351.63 516.25 355.04 508.75 361.57 517.61 367.2 512.67 371.75 522.73 379.06 520.84 381.18 531.12 389.44 532.46 388.94 541.96 397.35 546.39 394.25 554.17 401.99 561.27 396.62 566.57 402.92 575.63 395.8 577.94 400.05 588.09 391.87 587.17 393.66 597.41 385.22 593.36 384.36 602.68 376.49 595.89 373.08 603.39 366.56 594.53 360.92 599.47 356.37 589.4 349.06 591.3 346.94 581.01 338.68 579.68 339.19 570.18 330.77 565.75 333.87 557.97 326.13 550.87 331.5 545.57 325.2 536.5 332.32 534.2 328.07 524.05 336.25 524.97 334.46 514.73 342.9 518.78"/><polygon class="cls-12" points="342.99 518.73 343.84 509.41 351.71 516.2 355.12 508.7 361.65 517.56 367.29 512.62 371.84 522.68 379.14 520.79 381.27 531.08 389.53 532.41 389.02 541.91 397.43 546.34 394.34 554.12 402.08 561.22 396.71 566.52 403.01 575.59 395.88 577.89 400.14 588.04 391.95 587.12 393.74 597.36 385.3 593.31 384.45 602.63 376.58 595.84 373.17 603.34 366.64 594.48 361.01 599.42 356.46 589.35 349.15 591.25 347.03 580.96 338.76 579.63 339.27 570.13 330.86 565.7 333.95 557.92 326.22 550.82 331.59 545.52 325.28 536.45 332.41 534.15 328.16 524 336.34 524.92 334.55 514.68 342.99 518.73"/><polygon class="cls-12" points="343.08 518.68 343.93 509.36 351.8 516.15 355.21 508.65 361.74 517.51 367.37 512.57 371.92 522.64 379.23 520.74 381.35 531.03 389.62 532.36 389.11 541.86 397.52 546.29 394.43 554.07 402.17 561.17 396.79 566.47 403.1 575.54 395.97 577.84 400.23 587.99 392.04 587.07 393.83 597.31 385.39 593.26 384.54 602.58 376.67 595.79 373.26 603.29 366.73 594.43 361.1 599.37 356.55 589.3 349.24 591.2 347.12 580.91 338.85 579.58 339.36 570.08 330.95 565.65 334.04 557.87 326.3 550.77 331.68 545.47 325.37 536.4 332.5 534.1 328.24 523.95 336.43 524.87 334.64 514.63 343.08 518.68"/><polygon class="cls-12" points="343.17 518.63 344.02 509.31 351.89 516.1 355.3 508.6 361.83 517.46 367.46 512.52 372.01 522.59 379.32 520.69 381.44 530.98 389.7 532.31 389.19 541.81 397.61 546.24 394.51 554.02 402.25 561.12 396.88 566.42 403.19 575.49 396.06 577.79 400.31 587.94 392.13 587.02 393.92 597.26 385.48 593.21 384.63 602.53 376.75 595.74 373.35 603.24 366.82 594.38 361.18 599.32 356.63 589.25 349.33 591.15 347.2 580.87 338.94 579.53 339.45 570.03 331.04 565.6 334.13 557.82 326.39 550.72 331.76 545.42 325.46 536.36 332.58 534.05 328.33 523.9 336.51 524.82 334.73 514.58 343.17 518.63"/><polygon class="cls-12" points="343.25 518.59 344.11 509.26 351.98 516.05 355.38 508.55 361.91 517.41 367.55 512.47 372.1 522.54 379.4 520.64 381.53 530.93 389.79 532.26 389.28 541.76 397.69 546.19 394.6 553.97 402.34 561.07 396.97 566.37 403.27 575.44 396.14 577.74 400.4 587.89 392.21 586.97 394 597.21 385.56 593.16 384.71 602.48 376.84 595.7 373.43 603.19 366.9 594.33 361.27 599.27 356.72 589.21 349.41 591.1 347.29 580.82 339.02 579.48 339.53 569.98 331.12 565.55 334.21 557.77 326.48 550.67 331.85 545.37 325.55 536.31 332.67 534 328.42 523.85 336.6 524.77 334.81 514.53 343.25 518.59"/><polygon class="cls-12" points="343.34 518.53 344.19 509.21 352.06 516 355.47 508.5 362 517.36 367.63 512.42 372.18 522.49 379.49 520.6 381.61 530.88 389.88 532.21 389.37 541.71 397.78 546.14 394.69 553.92 402.43 561.02 397.05 566.32 403.36 575.39 396.23 577.69 400.49 587.84 392.3 586.92 394.09 597.16 385.65 593.11 384.8 602.43 376.93 595.64 373.52 603.14 366.99 594.28 361.36 599.22 356.81 589.16 349.5 591.05 347.38 580.77 339.11 579.43 339.62 569.93 331.21 565.5 334.3 557.72 326.56 550.62 331.94 545.32 325.63 536.26 332.76 533.95 328.5 523.8 336.69 524.72 334.9 514.49 343.34 518.53"/><polygon class="cls-12" points="343.43 518.49 344.28 509.16 352.15 515.95 355.56 508.45 362.09 517.31 367.72 512.38 372.27 522.44 379.58 520.55 381.7 530.83 389.96 532.16 389.46 541.66 397.87 546.09 394.78 553.87 402.51 560.97 397.14 566.27 403.44 575.34 396.32 577.64 400.57 587.79 392.39 586.87 394.18 597.11 385.74 593.06 384.88 602.38 377.02 595.6 373.61 603.09 367.08 594.23 361.44 599.17 356.89 589.11 349.59 591 347.46 580.72 339.2 579.38 339.71 569.89 331.3 565.45 334.39 557.67 326.65 550.58 332.02 545.27 325.72 536.21 332.85 533.9 328.59 523.75 336.77 524.67 334.99 514.44 343.43 518.49"/><polygon class="cls-12" points="343.51 518.44 344.37 509.11 352.24 515.9 355.64 508.4 362.17 517.26 367.81 512.33 372.36 522.39 379.66 520.5 381.79 530.78 390.05 532.12 389.54 541.61 397.95 546.04 394.86 553.82 402.6 560.92 397.23 566.22 403.53 575.29 396.4 577.59 400.66 587.74 392.48 586.83 394.26 597.06 385.82 593.01 384.97 602.33 377.1 595.55 373.69 603.04 367.16 594.18 361.53 599.12 356.98 589.06 349.67 590.95 347.55 580.67 339.29 579.33 339.8 569.84 331.38 565.4 334.48 557.62 326.74 550.53 332.11 545.23 325.81 536.16 332.93 533.85 328.68 523.71 336.86 524.62 335.07 514.39 343.51 518.44"/><polygon class="cls-12" points="343.6 518.39 344.45 509.06 352.32 515.85 355.73 508.36 362.26 517.21 367.89 512.28 372.44 522.34 379.75 520.45 381.88 530.73 390.14 532.07 389.63 541.56 398.04 546 394.95 553.77 402.69 560.87 397.31 566.17 403.62 575.24 396.49 577.54 400.75 587.69 392.56 586.77 394.35 597.01 385.91 592.96 385.06 602.28 377.19 595.5 373.78 602.99 367.25 594.14 361.62 599.07 357.07 589.01 349.76 590.9 347.64 580.62 339.37 579.28 339.88 569.79 331.47 565.35 334.56 557.57 326.82 550.48 332.2 545.17 325.89 536.11 333.02 533.8 328.76 523.66 336.95 524.57 335.16 514.34 343.6 518.39"/><polygon class="cls-12" points="343.69 518.34 344.54 509.01 352.41 515.8 355.82 508.31 362.35 517.16 367.98 512.23 372.53 522.29 379.84 520.4 381.96 530.68 390.23 532.02 389.72 541.51 398.13 545.95 395.04 553.73 402.77 560.82 397.4 566.12 403.71 575.19 396.58 577.5 400.83 587.64 392.65 586.73 394.44 596.96 386 592.91 385.15 602.24 377.28 595.45 373.87 602.95 367.34 594.09 361.7 599.02 357.15 588.96 349.85 590.85 347.72 580.57 339.46 579.23 339.97 569.74 331.56 565.3 334.65 557.52 326.91 550.43 332.28 545.13 325.98 536.06 333.11 533.75 328.85 523.61 337.04 524.52 335.25 514.29 343.69 518.34"/><polygon class="cls-12" points="343.77 518.29 344.63 508.97 352.5 515.75 355.91 508.26 362.44 517.12 368.07 512.18 372.62 522.24 379.93 520.35 382.05 530.63 390.31 531.97 389.8 541.46 398.22 545.9 395.12 553.68 402.86 560.77 397.49 566.08 403.79 575.14 396.67 577.45 400.92 587.6 392.74 586.68 394.52 596.91 386.08 592.86 385.23 602.19 377.36 595.4 373.95 602.89 367.42 594.04 361.79 598.97 357.24 588.91 349.93 590.8 347.81 580.52 339.55 579.18 340.06 569.69 331.64 565.25 334.74 557.48 327 550.38 332.37 545.08 326.07 536.01 333.19 533.71 328.94 523.56 337.12 524.48 335.33 514.24 343.77 518.29"/><polygon class="cls-12" points="343.86 518.24 344.71 508.92 352.58 515.7 355.99 508.21 362.52 517.07 368.16 512.13 372.7 522.19 380.01 520.3 382.13 530.58 390.4 531.92 389.89 541.41 398.3 545.85 395.21 553.63 402.95 560.72 397.57 566.03 403.88 575.09 396.75 577.4 401.01 587.54 392.82 586.63 394.61 596.86 386.17 592.81 385.32 602.14 377.45 595.35 374.04 602.85 367.51 593.99 361.88 598.92 357.33 588.86 350.02 590.75 347.9 580.47 339.63 579.13 340.14 569.64 331.73 565.21 334.82 557.43 327.08 550.33 332.46 545.03 326.15 535.96 333.28 533.66 329.02 523.51 337.21 524.43 335.42 514.19 343.86 518.24"/><polygon class="cls-12" points="343.95 518.19 344.8 508.87 352.67 515.65 356.08 508.16 362.61 517.02 368.24 512.08 372.79 522.14 380.1 520.25 382.22 530.53 390.49 531.87 389.98 541.36 398.39 545.8 395.3 553.58 403.03 560.67 397.66 565.98 403.97 575.04 396.84 577.35 401.09 587.5 392.91 586.58 394.7 596.82 386.26 592.76 385.41 602.09 377.54 595.3 374.13 602.8 367.6 593.94 361.96 598.88 357.41 588.81 350.11 590.7 347.98 580.42 339.72 579.09 340.23 569.59 331.82 565.16 334.91 557.38 327.17 550.28 332.55 544.98 326.24 535.91 333.37 533.61 329.11 523.46 337.3 524.38 335.51 514.14 343.95 518.19"/><polygon class="cls-12" points="344.03 518.14 344.89 508.82 352.76 515.61 356.17 508.11 362.69 516.97 368.33 512.03 372.88 522.09 380.19 520.2 382.31 530.48 390.57 531.82 390.06 541.32 398.48 545.75 395.38 553.53 403.12 560.63 397.75 565.93 404.05 574.99 396.93 577.3 401.18 587.45 393 586.53 394.79 596.76 386.35 592.72 385.49 602.04 377.62 595.25 374.21 602.75 367.69 593.89 362.05 598.83 357.5 588.76 350.19 590.65 348.07 580.37 339.81 579.04 340.32 569.54 331.9 565.11 335 557.33 327.26 550.23 332.63 544.93 326.33 535.86 333.45 533.56 329.2 523.41 337.38 524.33 335.59 514.09 344.03 518.14"/><polygon class="cls-12" points="344.12 518.09 344.97 508.77 352.84 515.56 356.25 508.06 362.78 516.92 368.42 511.98 372.96 522.04 380.27 520.15 382.4 530.43 390.66 531.77 390.15 541.27 398.56 545.7 395.47 553.48 403.21 560.58 397.83 565.88 404.14 574.95 397.01 577.25 401.27 587.4 393.08 586.48 394.87 596.72 386.43 592.67 385.58 601.99 377.71 595.2 374.3 602.7 367.77 593.84 362.14 598.78 357.59 588.71 350.28 590.61 348.16 580.32 339.89 578.99 340.4 569.49 331.99 565.06 335.08 557.28 327.35 550.18 332.72 544.88 326.41 535.81 333.54 533.51 329.29 523.36 337.47 524.28 335.68 514.04 344.12 518.09"/><polygon class="cls-12" points="344.21 518.04 345.06 508.72 352.93 515.51 356.34 508.01 362.87 516.87 368.5 511.93 373.05 522 380.36 520.1 382.48 530.38 390.75 531.72 390.24 541.22 398.65 545.65 395.56 553.43 403.3 560.53 397.92 565.83 404.23 574.89 397.1 577.2 401.36 587.35 393.17 586.43 394.96 596.67 386.52 592.62 385.67 601.94 377.8 595.15 374.39 602.65 367.86 593.79 362.22 598.73 357.68 588.66 350.37 590.56 348.24 580.27 339.98 578.94 340.49 569.44 332.08 565.01 335.17 557.23 327.43 550.13 332.81 544.83 326.5 535.76 333.63 533.46 329.37 523.31 337.56 524.23 335.77 513.99 344.21 518.04"/><polygon class="cls-12" points="344.3 517.99 345.15 508.67 353.02 515.46 356.43 507.96 362.96 516.82 368.59 511.88 373.14 521.95 380.45 520.05 382.57 530.34 390.83 531.67 390.32 541.17 398.74 545.6 395.64 553.38 403.38 560.48 398.01 565.78 404.31 574.85 397.19 577.15 401.44 587.3 393.26 586.38 395.05 596.62 386.61 592.57 385.75 601.89 377.88 595.1 374.47 602.6 367.94 593.74 362.31 598.68 357.76 588.61 350.45 590.51 348.33 580.23 340.07 578.89 340.58 569.39 332.16 564.96 335.26 557.18 327.52 550.08 332.89 544.78 326.59 535.71 333.71 533.41 329.46 523.26 337.64 524.18 335.86 513.94 344.3 517.99"/><polygon class="cls-12" points="344.38 517.94 345.23 508.62 353.1 515.41 356.51 507.91 363.04 516.77 368.68 511.83 373.23 521.9 380.53 520 382.66 530.29 390.92 531.62 390.41 541.12 398.82 545.55 395.73 553.33 403.47 560.43 398.1 565.73 404.4 574.8 397.27 577.1 401.53 587.25 393.34 586.33 395.13 596.57 386.69 592.52 385.84 601.84 377.97 595.05 374.56 602.55 368.03 593.69 362.4 598.63 357.85 588.57 350.54 590.46 348.42 580.17 340.15 578.84 340.66 569.34 332.25 564.91 335.34 557.13 327.61 550.03 332.98 544.73 326.67 535.66 333.8 533.36 329.55 523.21 337.73 524.13 335.94 513.89 344.38 517.94"/><polygon class="cls-12" points="344.47 517.89 345.32 508.57 353.19 515.36 356.6 507.86 363.13 516.72 368.76 511.78 373.31 521.85 380.62 519.96 382.74 530.24 391.01 531.57 390.5 541.07 398.91 545.5 395.82 553.28 403.56 560.38 398.18 565.68 404.49 574.75 397.36 577.05 401.62 587.2 393.43 586.28 395.22 596.52 386.78 592.47 385.93 601.79 378.06 595 374.65 602.5 368.12 593.64 362.49 598.58 357.94 588.52 350.63 590.41 348.5 580.13 340.24 578.79 340.75 569.29 332.34 564.86 335.43 557.08 327.69 549.98 333.07 544.68 326.76 535.62 333.89 533.31 329.63 523.16 337.82 524.08 336.03 513.84 344.47 517.89"/><polygon class="cls-12" points="344.56 517.85 345.41 508.52 353.28 515.31 356.69 507.81 363.22 516.67 368.85 511.74 373.4 521.8 380.71 519.9 382.83 530.19 391.09 531.52 390.58 541.02 399 545.45 395.9 553.23 403.64 560.33 398.27 565.63 404.57 574.7 397.45 577 401.7 587.15 393.52 586.23 395.31 596.47 386.87 592.42 386.01 601.74 378.14 594.96 374.74 602.45 368.21 593.59 362.57 598.53 358.02 588.47 350.72 590.36 348.59 580.08 340.33 578.74 340.84 569.25 332.43 564.81 335.52 557.03 327.78 549.93 333.15 544.63 326.85 535.57 333.98 533.26 329.72 523.11 337.9 524.03 336.12 513.79 344.56 517.85"/><polygon class="cls-12" points="344.64 517.8 345.5 508.47 353.36 515.26 356.77 507.76 363.3 516.62 368.94 511.69 373.49 521.75 380.79 519.86 382.92 530.14 391.18 531.48 390.67 540.97 399.08 545.4 395.99 553.18 403.73 560.28 398.36 565.58 404.66 574.65 397.53 576.95 401.79 587.1 393.61 586.18 395.39 596.42 386.95 592.37 386.1 601.69 378.23 594.91 374.82 602.4 368.29 593.54 362.66 598.48 358.11 588.42 350.8 590.31 348.68 580.03 340.42 578.69 340.92 569.2 332.51 564.76 335.6 556.98 327.87 549.88 333.24 544.58 326.94 535.52 334.06 533.21 329.81 523.06 337.99 523.98 336.2 513.75 344.64 517.8"/><polygon class="cls-12" points="344.73 517.75 345.58 508.42 353.45 515.21 356.86 507.71 363.39 516.57 369.02 511.64 373.57 521.7 380.88 519.81 383 530.09 391.27 531.42 390.76 540.92 399.17 545.36 396.08 553.13 403.82 560.23 398.44 565.53 404.75 574.6 397.62 576.9 401.88 587.05 393.69 586.13 395.48 596.37 387.04 592.32 386.19 601.64 378.32 594.86 374.91 602.35 368.38 593.5 362.75 598.43 358.2 588.37 350.89 590.26 348.77 579.98 340.5 578.64 341.01 569.15 332.6 564.71 335.69 556.93 327.95 549.84 333.33 544.53 327.02 535.47 334.15 533.16 329.89 523.01 338.08 523.93 336.29 513.7 344.73 517.75"/><polygon class="cls-12" points="344.82 517.7 345.67 508.38 353.54 515.16 356.95 507.67 363.48 516.52 369.11 511.59 373.66 521.65 380.97 519.76 383.09 530.04 391.36 531.38 390.85 540.87 399.26 545.3 396.17 553.09 403.9 560.18 398.53 565.48 404.83 574.55 397.71 576.86 401.96 587 393.78 586.09 395.57 596.32 387.13 592.27 386.27 601.59 378.4 594.81 375 602.3 368.47 593.45 362.83 598.38 358.28 588.32 350.98 590.21 348.85 579.93 340.59 578.59 341.1 569.1 332.69 564.66 335.78 556.88 328.04 549.79 333.41 544.49 327.11 535.42 334.24 533.11 329.98 522.97 338.17 523.88 336.38 513.65 344.82 517.7"/><polygon class="cls-12" points="344.9 517.65 345.75 508.33 353.63 515.11 357.04 507.62 363.56 516.47 369.2 511.54 373.75 521.6 381.05 519.71 383.18 529.99 391.44 531.33 390.93 540.82 399.35 545.26 396.25 553.03 403.99 560.13 398.62 565.43 404.92 574.5 397.79 576.81 402.05 586.95 393.87 586.04 395.65 596.27 387.21 592.22 386.36 601.54 378.49 594.76 375.08 602.25 368.55 593.4 362.92 598.33 358.37 588.27 351.06 590.16 348.94 579.88 340.68 578.54 341.18 569.05 332.77 564.61 335.86 556.84 328.13 549.74 333.5 544.44 327.19 535.37 334.32 533.07 330.07 522.92 338.25 523.83 336.46 513.6 344.9 517.65"/><polygon class="cls-12" points="344.99 517.6 345.84 508.28 353.71 515.06 357.12 507.57 363.65 516.42 369.29 511.49 373.83 521.55 381.14 519.66 383.26 529.94 391.53 531.28 391.02 540.77 399.43 545.21 396.34 552.99 404.08 560.08 398.7 565.38 405.01 574.45 397.88 576.76 402.14 586.9 393.95 585.99 395.74 596.22 387.3 592.17 386.45 601.5 378.58 594.71 375.17 602.21 368.64 593.35 363.01 598.28 358.46 588.22 351.15 590.11 349.03 579.83 340.76 578.49 341.27 569 332.86 564.57 335.95 556.79 328.21 549.69 333.59 544.39 327.28 535.32 334.41 533.02 330.15 522.87 338.34 523.78 336.55 513.55 344.99 517.6"/><polygon class="cls-12" points="345.08 517.55 345.93 508.23 353.8 515.01 357.21 507.52 363.74 516.38 369.37 511.44 373.92 521.5 381.23 519.61 383.35 529.89 391.62 531.23 391.11 540.72 399.52 545.16 396.43 552.94 404.16 560.03 398.79 565.34 405.1 574.4 397.97 576.71 402.22 586.86 394.04 585.94 395.83 596.17 387.39 592.12 386.54 601.45 378.67 594.66 375.26 602.16 368.73 593.3 363.09 598.23 358.54 588.17 351.24 590.06 349.11 579.78 340.85 578.45 341.36 568.95 332.95 564.52 336.04 556.74 328.3 549.64 333.67 544.34 327.37 535.27 334.5 532.97 330.24 522.82 338.43 523.74 336.64 513.5 345.08 517.55"/><polygon class="cls-12" points="345.16 517.5 346.02 508.18 353.88 514.96 357.3 507.47 363.82 516.33 369.46 511.39 374.01 521.45 381.31 519.56 383.44 529.84 391.7 531.18 391.19 540.67 399.61 545.11 396.51 552.89 404.25 559.99 398.88 565.29 405.18 574.35 398.06 576.66 402.31 586.81 394.13 585.89 395.92 596.13 387.48 592.07 386.62 601.4 378.75 594.61 375.34 602.11 368.81 593.25 363.18 598.18 358.63 588.12 351.32 590.01 349.2 579.73 340.94 578.4 341.44 568.9 333.03 564.47 336.13 556.69 328.39 549.59 333.76 544.29 327.46 535.22 334.58 532.92 330.33 522.77 338.51 523.69 336.72 513.45 345.16 517.5"/><polygon class="cls-12" points="345.25 517.45 346.1 508.13 353.97 514.91 357.38 507.42 363.91 516.28 369.55 511.34 374.1 521.4 381.4 519.51 383.52 529.79 391.79 531.13 391.28 540.63 399.69 545.06 396.6 552.84 404.34 559.94 398.96 565.24 405.27 574.3 398.14 576.61 402.4 586.76 394.21 585.84 396 596.08 387.56 592.02 386.71 601.35 378.84 594.56 375.43 602.06 368.9 593.2 363.27 598.13 358.72 588.07 351.41 589.97 349.29 579.68 341.02 578.35 341.53 568.85 333.12 564.42 336.21 556.64 328.48 549.54 333.85 544.24 327.54 535.17 334.67 532.87 330.42 522.72 338.6 523.64 336.81 513.4 345.25 517.45"/><polygon class="cls-12" points="345.34 517.4 346.19 508.08 354.06 514.87 357.47 507.37 364 516.23 369.63 511.29 374.18 521.36 381.49 519.46 383.61 529.74 391.88 531.08 391.37 540.58 399.78 545.01 396.69 552.79 404.42 559.89 399.05 565.19 405.36 574.25 398.23 576.56 402.48 586.71 394.3 585.79 396.09 596.03 387.65 591.98 386.8 601.3 378.93 594.51 375.52 602.01 368.99 593.15 363.35 598.09 358.8 588.02 351.5 589.92 349.37 579.63 341.11 578.3 341.62 568.8 333.21 564.37 336.3 556.59 328.56 549.49 333.93 544.19 327.63 535.12 334.76 532.82 330.5 522.67 338.69 523.59 336.9 513.35 345.34 517.4"/><polygon class="cls-12" points="345.42 517.35 346.28 508.03 354.15 514.82 357.56 507.32 364.08 516.18 369.72 511.24 374.27 521.3 381.57 519.41 383.7 529.7 391.96 531.03 391.45 540.53 399.87 544.96 396.77 552.74 404.51 559.84 399.14 565.14 405.44 574.21 398.32 576.51 402.57 586.66 394.39 585.74 396.18 595.98 387.74 591.93 386.88 601.25 379.01 594.46 375.6 601.96 369.07 593.1 363.44 598.04 358.89 587.97 351.58 589.87 349.46 579.58 341.2 578.25 341.71 568.75 333.29 564.32 336.39 556.54 328.65 549.44 334.02 544.14 327.72 535.07 334.84 532.77 330.59 522.62 338.77 523.54 336.98 513.3 345.42 517.35"/><polygon class="cls-12" points="345.51 517.3 346.36 507.98 354.23 514.77 357.64 507.27 364.17 516.13 369.81 511.19 374.36 521.26 381.66 519.36 383.79 529.65 392.05 530.98 391.54 540.48 399.95 544.91 396.86 552.69 404.6 559.79 399.23 565.09 405.53 574.16 398.4 576.46 402.66 586.61 394.47 585.69 396.26 595.93 387.82 591.88 386.97 601.2 379.1 594.41 375.69 601.91 369.16 593.05 363.53 597.99 358.98 587.92 351.67 589.82 349.55 579.53 341.28 578.2 341.79 568.7 333.38 564.27 336.47 556.49 328.74 549.39 334.11 544.09 327.8 535.02 334.93 532.72 330.68 522.57 338.86 523.49 337.07 513.25 345.51 517.3"/><polygon class="cls-12" points="345.6 517.25 346.45 507.93 354.32 514.72 357.73 507.22 364.26 516.08 369.89 511.14 374.44 521.21 381.75 519.31 383.87 529.6 392.14 530.93 391.63 540.43 400.04 544.86 396.95 552.64 404.69 559.74 399.31 565.04 405.62 574.11 398.49 576.41 402.74 586.56 394.56 585.64 396.35 595.88 387.91 591.83 387.06 601.15 379.19 594.36 375.78 601.86 369.25 593 363.61 597.94 359.06 587.88 351.76 589.77 349.63 579.49 341.37 578.15 341.88 568.65 333.47 564.22 336.56 556.44 328.82 549.34 334.19 544.04 327.89 534.98 335.02 532.67 330.76 522.52 338.95 523.44 337.16 513.2 345.6 517.25"/><polygon class="cls-12" points="345.69 517.21 346.54 507.88 354.41 514.67 357.82 507.17 364.35 516.03 369.98 511.09 374.53 521.16 381.84 519.26 383.96 529.55 392.22 530.88 391.71 540.38 400.13 544.81 397.03 552.59 404.77 559.69 399.4 564.99 405.7 574.06 398.58 576.36 402.83 586.51 394.65 585.59 396.44 595.83 388 591.78 387.14 601.1 379.27 594.32 375.86 601.81 369.33 592.95 363.7 597.89 359.15 587.83 351.85 589.72 349.72 579.44 341.46 578.1 341.97 568.61 333.55 564.17 336.65 556.39 328.91 549.29 334.28 543.99 327.98 534.93 335.1 532.62 330.85 522.47 339.03 523.39 337.25 513.15 345.69 517.21"/><polygon class="cls-12" points="345.77 517.15 346.62 507.83 354.49 514.62 357.9 507.12 364.43 515.98 370.07 511.05 374.62 521.11 381.92 519.22 384.05 529.5 392.31 530.83 391.8 540.33 400.21 544.76 397.12 552.54 404.86 559.64 399.49 564.94 405.79 574.01 398.66 576.31 402.92 586.46 394.73 585.54 396.52 595.78 388.08 591.73 387.23 601.05 379.36 594.27 375.95 601.76 369.42 592.9 363.79 597.84 359.24 587.78 351.93 589.67 349.81 579.39 341.54 578.05 342.05 568.55 333.64 564.12 336.73 556.34 329 549.25 334.37 543.94 328.06 534.88 335.19 532.57 330.94 522.42 339.12 523.34 337.33 513.11 345.77 517.15"/><polygon class="cls-12" points="345.86 517.11 346.71 507.78 354.58 514.57 357.99 507.07 364.52 515.93 370.15 511 374.7 521.06 382.01 519.17 384.13 529.45 392.4 530.78 391.89 540.28 400.3 544.71 397.21 552.49 404.94 559.59 399.57 564.89 405.88 573.96 398.75 576.26 403 586.41 394.82 585.49 396.61 595.73 388.17 591.68 387.32 601 379.45 594.22 376.04 601.71 369.51 592.85 363.87 597.79 359.32 587.73 352.02 589.62 349.89 579.34 341.63 578 342.14 568.51 333.73 564.07 336.82 556.29 329.08 549.2 334.45 543.89 328.15 534.83 335.28 532.52 331.02 522.37 339.21 523.29 337.42 513.06 345.86 517.11"/><polygon class="cls-12" points="345.94 517.06 346.8 507.73 354.67 514.52 358.08 507.02 364.61 515.88 370.24 510.95 374.79 521.01 382.1 519.12 384.22 529.4 392.48 530.74 391.98 540.23 400.39 544.66 397.3 552.44 405.03 559.54 399.66 564.84 405.96 573.91 398.84 576.21 403.09 586.36 394.91 585.45 396.7 595.68 388.26 591.63 387.4 600.95 379.53 594.17 376.12 601.66 369.6 592.8 363.96 597.74 359.41 587.68 352.11 589.57 349.98 579.29 341.72 577.95 342.23 568.46 333.81 564.02 336.91 556.24 329.17 549.15 334.54 543.85 328.24 534.78 335.37 532.47 331.11 522.33 339.29 523.24 337.5 513.01 345.94 517.06"/><polygon class="cls-12" points="346.03 517.01 346.88 507.69 354.75 514.47 358.16 506.98 364.69 515.83 370.33 510.9 374.88 520.96 382.18 519.07 384.31 529.35 392.57 530.69 392.06 540.18 400.47 544.62 397.38 552.39 405.12 559.49 399.75 564.79 406.05 573.86 398.92 576.16 403.18 586.31 394.99 585.39 396.78 595.63 388.34 591.58 387.49 600.9 379.62 594.12 376.21 601.61 369.68 592.76 364.05 597.69 359.5 587.63 352.19 589.52 350.07 579.24 341.81 577.9 342.31 568.41 333.9 563.97 336.99 556.19 329.26 549.1 334.63 543.79 328.32 534.73 335.45 532.42 331.2 522.28 339.38 523.19 337.59 512.96 346.03 517.01"/><polygon class="cls-12" points="346.12 516.96 346.97 507.64 354.84 514.42 358.25 506.93 364.78 515.78 370.41 510.85 374.96 520.91 382.27 519.02 384.39 529.3 392.66 530.64 392.15 540.13 400.56 544.57 397.47 552.35 405.21 559.44 399.83 564.74 406.14 573.81 399.01 576.12 403.26 586.26 395.08 585.35 396.87 595.58 388.43 591.53 387.58 600.86 379.71 594.07 376.3 601.57 369.77 592.71 364.13 597.64 359.59 587.58 352.28 589.47 350.15 579.19 341.89 577.85 342.4 568.36 333.99 563.92 337.08 556.14 329.34 549.05 334.72 543.75 328.41 534.68 335.54 532.38 331.28 522.23 339.47 523.14 337.68 512.91 346.12 516.96"/><polygon class="cls-12" points="346.21 516.91 347.06 507.59 354.93 514.37 358.34 506.88 364.87 515.74 370.5 510.8 375.05 520.86 382.36 518.97 384.48 529.25 392.75 530.59 392.24 540.08 400.65 544.52 397.56 552.3 405.29 559.39 399.92 564.7 406.23 573.76 399.1 576.07 403.35 586.22 395.17 585.3 396.96 595.53 388.52 591.48 387.67 600.81 379.8 594.02 376.38 601.51 369.86 592.66 364.22 597.59 359.67 587.53 352.37 589.42 350.24 579.14 341.98 577.8 342.49 568.31 334.07 563.88 337.17 556.1 329.43 549 334.8 543.7 328.5 534.63 335.63 532.33 331.37 522.18 339.56 523.1 337.77 512.86 346.21 516.91"/><polygon class="cls-12" points="346.29 516.86 347.14 507.54 355.01 514.32 358.43 506.83 364.95 515.69 370.59 510.75 375.14 520.81 382.44 518.92 384.57 529.2 392.83 530.54 392.32 540.03 400.74 544.47 397.64 552.25 405.38 559.35 400.01 564.65 406.31 573.71 399.18 576.02 403.44 586.17 395.25 585.25 397.04 595.48 388.6 591.43 387.75 600.76 379.88 593.97 376.47 601.47 369.94 592.61 364.31 597.54 359.76 587.48 352.45 589.37 350.33 579.09 342.06 577.75 342.57 568.26 334.16 563.83 337.25 556.05 329.52 548.95 334.89 543.65 328.58 534.58 335.71 532.28 331.46 522.13 339.64 523.05 337.85 512.81 346.29 516.86"/><polygon class="cls-12" points="346.38 516.81 347.23 507.49 355.1 514.27 358.51 506.78 365.04 515.64 370.68 510.7 375.22 520.76 382.53 518.87 384.65 529.15 392.92 530.49 392.41 539.99 400.82 544.42 397.73 552.2 405.47 559.29 400.09 564.6 406.4 573.66 399.27 575.97 403.53 586.12 395.34 585.2 397.13 595.43 388.69 591.38 387.84 600.71 379.97 593.92 376.56 601.42 370.03 592.56 364.4 597.5 359.85 587.43 352.54 589.32 350.42 579.04 342.15 577.71 342.66 568.21 334.25 563.78 337.34 556 329.6 548.9 334.98 543.6 328.67 534.53 335.8 532.23 331.54 522.08 339.73 523 337.94 512.76 346.38 516.81"/><polygon class="cls-12" points="346.47 516.76 347.32 507.44 355.19 514.23 358.6 506.73 365.13 515.59 370.76 510.65 375.31 520.71 382.62 518.82 384.74 529.1 393 530.44 392.5 539.93 400.91 544.37 397.82 552.15 405.55 559.25 400.18 564.55 406.49 573.61 399.36 575.92 403.61 586.07 395.43 585.15 397.22 595.39 388.78 591.34 387.93 600.66 380.06 593.87 376.64 601.37 370.12 592.51 364.48 597.45 359.93 587.38 352.63 589.27 350.5 578.99 342.24 577.66 342.75 568.16 334.34 563.73 337.43 555.95 329.69 548.85 335.06 543.55 328.76 534.48 335.89 532.18 331.63 522.03 339.81 522.95 338.03 512.71 346.47 516.76"/><polygon class="cls-12" points="346.55 516.71 347.41 507.39 355.27 514.18 358.69 506.68 365.21 515.54 370.85 510.6 375.4 520.66 382.7 518.77 384.83 529.05 393.09 530.39 392.58 539.89 401 544.32 397.9 552.1 405.64 559.2 400.27 564.5 406.57 573.57 399.44 575.87 403.7 586.02 395.52 585.1 397.3 595.34 388.86 591.29 388.01 600.61 380.14 593.82 376.73 601.32 370.2 592.46 364.57 597.4 360.02 587.33 352.71 589.23 350.59 578.94 342.33 577.61 342.83 568.11 334.42 563.68 337.51 555.9 329.78 548.8 335.15 543.5 328.85 534.43 335.97 532.13 331.72 521.98 339.9 522.9 338.11 512.66 346.55 516.71"/><polygon class="cls-12" points="346.64 516.66 347.49 507.34 355.36 514.13 358.77 506.63 365.3 515.49 370.94 510.55 375.48 520.62 382.79 518.72 384.92 529 393.18 530.34 392.67 539.84 401.08 544.27 397.99 552.05 405.73 559.15 400.35 564.45 406.66 573.52 399.53 575.82 403.79 585.97 395.6 585.05 397.39 595.29 388.95 591.24 388.1 600.56 380.23 593.77 376.82 601.27 370.29 592.41 364.66 597.35 360.11 587.28 352.8 589.18 350.68 578.89 342.41 577.56 342.92 568.06 334.51 563.63 337.6 555.85 329.86 548.75 335.24 543.45 328.93 534.38 336.06 532.08 331.81 521.93 339.99 522.85 338.2 512.61 346.64 516.66"/><polygon class="cls-12" points="346.73 516.61 347.58 507.29 355.45 514.08 358.86 506.58 365.39 515.44 371.02 510.5 375.57 520.57 382.88 518.67 385 528.96 393.27 530.29 392.76 539.79 401.17 544.22 398.08 552 405.81 559.1 400.44 564.4 406.75 573.47 399.62 575.77 403.87 585.92 395.69 585 397.48 595.24 389.04 591.19 388.19 600.51 380.32 593.72 376.91 601.22 370.38 592.36 364.74 597.3 360.19 587.24 352.89 589.13 350.76 578.85 342.5 577.51 343.01 568.01 334.6 563.58 337.69 555.8 329.95 548.7 335.32 543.4 329.02 534.33 336.15 532.03 331.89 521.88 340.08 522.8 338.29 512.56 346.73 516.61"/><polygon class="cls-12" points="346.81 516.56 347.67 507.24 355.54 514.03 358.95 506.53 365.48 515.39 371.11 510.45 375.66 520.52 382.96 518.62 385.09 528.91 393.35 530.24 392.84 539.74 401.26 544.17 398.16 551.95 405.9 559.05 400.53 564.35 406.83 573.42 399.7 575.72 403.96 585.87 395.78 584.95 397.56 595.19 389.13 591.14 388.27 600.46 380.4 593.67 376.99 601.17 370.46 592.31 364.83 597.25 360.28 587.18 352.97 589.08 350.85 578.8 342.59 577.46 343.1 567.96 334.68 563.53 337.77 555.75 330.04 548.65 335.41 543.35 329.11 534.28 336.23 531.98 331.98 521.83 340.16 522.75 338.37 512.51 346.81 516.56"/><polygon class="cls-12" points="346.9 516.51 347.75 507.19 355.62 513.98 359.03 506.48 365.56 515.34 371.2 510.4 375.75 520.47 383.05 518.58 385.18 528.86 393.44 530.19 392.93 539.69 401.34 544.12 398.25 551.9 405.99 559 400.62 564.3 406.92 573.37 399.79 575.67 404.05 585.82 395.86 584.9 397.65 595.14 389.21 591.09 388.36 600.41 380.49 593.63 377.08 601.12 370.55 592.26 364.92 597.2 360.37 587.14 353.06 589.03 350.94 578.75 342.67 577.41 343.18 567.91 334.77 563.48 337.86 555.7 330.13 548.6 335.5 543.3 329.19 534.24 336.32 531.93 332.06 521.78 340.25 522.7 338.46 512.46 346.9 516.51"/><polygon class="cls-12" points="346.99 516.47 347.84 507.14 355.71 513.93 359.12 506.43 365.65 515.29 371.28 510.36 375.83 520.42 383.14 518.52 385.26 528.81 393.53 530.14 393.02 539.64 401.43 544.07 398.34 551.85 406.07 558.95 400.7 564.25 407.01 573.32 399.88 575.62 404.13 585.77 395.95 584.85 397.74 595.09 389.3 591.04 388.45 600.36 380.58 593.58 377.17 601.07 370.64 592.21 365 597.15 360.45 587.09 353.15 588.98 351.02 578.7 342.76 577.36 343.27 567.87 334.86 563.43 337.95 555.65 330.21 548.55 335.58 543.25 329.28 534.19 336.41 531.88 332.15 521.73 340.34 522.65 338.55 512.41 346.99 516.47"/><polygon class="cls-12" points="347.07 516.42 347.93 507.09 355.8 513.88 359.21 506.38 365.74 515.24 371.37 510.31 375.92 520.37 383.23 518.48 385.35 528.76 393.61 530.1 393.1 539.59 401.52 544.02 398.42 551.8 406.16 558.9 400.79 564.2 407.09 573.27 399.97 575.57 404.22 585.72 396.04 584.8 397.83 595.04 389.39 590.99 388.53 600.31 380.66 593.53 377.25 601.02 370.73 592.16 365.09 597.1 360.54 587.04 353.24 588.93 351.11 578.65 342.85 577.31 343.36 567.82 334.94 563.38 338.04 555.6 330.3 548.5 335.67 543.2 329.37 534.14 336.49 531.83 332.24 521.68 340.42 522.6 338.63 512.37 347.07 516.42"/><polygon class="cls-12" points="347.16 516.37 348.01 507.04 355.88 513.83 359.29 506.33 365.82 515.19 371.46 510.26 376 520.32 383.31 518.43 385.44 528.71 393.7 530.04 393.19 539.54 401.6 543.98 398.51 551.75 406.25 558.85 400.88 564.15 407.18 573.22 400.05 575.52 404.31 585.67 396.12 584.75 397.91 594.99 389.47 590.94 388.62 600.26 380.75 593.48 377.34 600.97 370.81 592.12 365.18 597.05 360.63 586.99 353.32 588.88 351.2 578.6 342.93 577.26 343.44 567.77 335.03 563.33 338.12 555.55 330.39 548.46 335.76 543.15 329.45 534.09 336.58 531.78 332.33 521.63 340.51 522.55 338.72 512.32 347.16 516.37"/><polygon class="cls-12" points="347.25 516.32 348.1 507 355.97 513.78 359.38 506.29 365.91 515.14 371.54 510.21 376.09 520.27 383.4 518.38 385.52 528.66 393.79 530 393.28 539.49 401.69 543.93 398.6 551.71 406.33 558.8 400.96 564.1 407.27 573.17 400.14 575.48 404.39 585.62 396.21 584.71 398 594.94 389.56 590.89 388.71 600.21 380.84 593.43 377.43 600.92 370.9 592.07 365.26 597 360.71 586.94 353.41 588.83 351.28 578.55 343.02 577.21 343.53 567.72 335.12 563.28 338.21 555.5 330.47 548.41 335.85 543.11 329.54 534.04 336.67 531.73 332.41 521.59 340.6 522.5 338.81 512.27 347.25 516.32"/><polygon class="cls-12" points="347.33 516.27 348.19 506.95 356.06 513.73 359.47 506.24 366 515.09 371.63 510.16 376.18 520.22 383.49 518.33 385.61 528.61 393.87 529.95 393.37 539.44 401.78 543.88 398.69 551.65 406.42 558.75 401.05 564.05 407.35 573.12 400.23 575.43 404.48 585.57 396.3 584.66 398.09 594.89 389.65 590.84 388.79 600.16 380.92 593.38 377.51 600.88 370.99 592.02 365.35 596.95 360.8 586.89 353.5 588.78 351.37 578.5 343.11 577.16 343.62 567.67 335.2 563.23 338.3 555.46 330.56 548.36 335.93 543.06 329.63 533.99 336.75 531.68 332.5 521.54 340.68 522.46 338.89 512.22 347.33 516.27"/><polygon class="cls-12" points="347.42 516.22 348.27 506.9 356.14 513.68 359.55 506.19 366.08 515.04 371.72 510.11 376.27 520.17 383.57 518.28 385.7 528.56 393.96 529.9 393.45 539.39 401.86 543.83 398.77 551.61 406.51 558.7 401.14 564 407.44 573.07 400.31 575.38 404.57 585.52 396.38 584.61 398.17 594.84 389.73 590.79 388.88 600.12 381.01 593.33 377.6 600.83 371.07 591.97 365.44 596.9 360.89 586.84 353.58 588.73 351.46 578.45 343.19 577.12 343.7 567.62 335.29 563.18 338.38 555.41 330.65 548.31 336.02 543.01 329.71 533.94 336.84 531.64 332.59 521.49 340.77 522.4 338.98 512.17 347.42 516.22"/><polygon class="cls-12" points="347.51 516.17 348.36 506.85 356.23 513.63 359.64 506.14 366.17 515 371.8 510.06 376.35 520.12 383.66 518.23 385.78 528.51 394.05 529.85 393.54 539.34 401.95 543.78 398.86 551.56 406.6 558.65 401.22 563.96 407.53 573.02 400.4 575.33 404.65 585.48 396.47 584.56 398.26 594.79 389.82 590.74 388.97 600.07 381.1 593.28 377.69 600.78 371.16 591.92 365.52 596.85 360.98 586.79 353.67 588.68 351.55 578.4 343.28 577.07 343.79 567.57 335.38 563.14 338.47 555.36 330.73 548.26 336.11 542.96 329.8 533.89 336.93 531.59 332.67 521.44 340.86 522.36 339.07 512.12 347.51 516.17"/><polygon class="cls-12" points="347.6 516.12 348.45 506.8 356.32 513.58 359.73 506.09 366.26 514.95 371.89 510.01 376.44 520.07 383.75 518.18 385.87 528.46 394.13 529.8 393.63 539.29 402.04 543.73 398.94 551.51 406.68 558.61 401.31 563.91 407.61 572.97 400.49 575.28 404.74 585.43 396.56 584.51 398.35 594.75 389.91 590.69 389.05 600.02 381.19 593.23 377.77 600.73 371.25 591.87 365.61 596.8 361.06 586.74 353.76 588.63 351.63 578.35 343.37 577.02 343.88 567.52 335.46 563.09 338.56 555.31 330.82 548.21 336.19 542.91 329.89 533.84 337.01 531.54 332.76 521.39 340.94 522.31 339.16 512.07 347.6 516.12"/><polygon class="cls-12" points="347.68 516.07 348.54 506.75 356.4 513.53 359.81 506.04 366.34 514.9 371.98 509.96 376.53 520.02 383.83 518.13 385.96 528.41 394.22 529.75 393.71 539.25 402.12 543.68 399.03 551.46 406.77 558.56 401.4 563.86 407.7 572.92 400.57 575.23 404.83 585.38 396.64 584.46 398.43 594.7 389.99 590.64 389.14 599.97 381.27 593.18 377.86 600.68 371.33 591.82 365.7 596.75 361.15 586.69 353.84 588.59 351.72 578.3 343.45 576.97 343.96 567.47 335.55 563.04 338.64 555.26 330.91 548.16 336.28 542.86 329.98 533.79 337.1 531.49 332.85 521.34 341.03 522.26 339.24 512.02 347.68 516.07"/><polygon class="cls-12" points="347.77 516.02 348.62 506.7 356.49 513.49 359.9 505.99 366.43 514.85 372.06 509.91 376.61 519.98 383.92 518.08 386.04 528.36 394.31 529.7 393.8 539.2 402.21 543.63 399.12 551.41 406.86 558.51 401.48 563.81 407.79 572.88 400.66 575.18 404.92 585.33 396.73 584.41 398.52 594.65 390.08 590.6 389.23 599.92 381.36 593.13 377.95 600.63 371.42 591.77 365.79 596.71 361.24 586.64 353.93 588.54 351.81 578.25 343.54 576.92 344.05 567.42 335.64 562.99 338.73 555.21 330.99 548.11 336.37 542.81 330.06 533.74 337.19 531.44 332.93 521.29 341.12 522.21 339.33 511.97 347.77 516.02"/><polygon class="cls-12" points="347.86 515.97 348.71 506.65 356.58 513.44 359.99 505.94 366.52 514.8 372.15 509.86 376.7 519.92 384.01 518.03 386.13 528.32 394.39 529.65 393.89 539.15 402.3 543.58 399.21 551.36 406.94 558.46 401.57 563.76 407.88 572.83 400.75 575.13 405 585.28 396.82 584.36 398.61 594.6 390.17 590.55 389.31 599.87 381.44 593.08 378.04 600.58 371.51 591.72 365.87 596.66 361.32 586.59 354.02 588.49 351.89 578.2 343.63 576.87 344.14 567.37 335.73 562.94 338.82 555.16 331.08 548.06 336.45 542.76 330.15 533.69 337.28 531.39 333.02 521.24 341.2 522.16 339.42 511.92 347.86 515.97"/><polygon class="cls-12" points="347.94 515.92 348.8 506.6 356.67 513.39 360.07 505.89 366.6 514.75 372.24 509.81 376.79 519.88 384.09 517.98 386.22 528.27 394.48 529.6 393.97 539.1 402.38 543.53 399.29 551.31 407.03 558.41 401.66 563.71 407.96 572.78 400.83 575.08 405.09 585.23 396.9 584.31 398.69 594.55 390.25 590.5 389.4 599.82 381.53 593.03 378.12 600.53 371.59 591.67 365.96 596.61 361.41 586.54 354.1 588.44 351.98 578.15 343.71 576.82 344.22 567.32 335.81 562.89 338.9 555.11 331.17 548.01 336.54 542.71 330.24 533.64 337.36 531.34 333.11 521.19 341.29 522.11 339.5 511.87 347.94 515.92"/><polygon class="cls-12" points="348.03 515.87 348.88 506.55 356.75 513.34 360.16 505.84 366.69 514.7 372.32 509.76 376.87 519.83 384.18 517.93 386.31 528.22 394.57 529.55 394.06 539.05 402.47 543.48 399.38 551.26 407.12 558.36 401.74 563.66 408.05 572.73 400.92 575.03 405.18 585.18 396.99 584.26 398.78 594.5 390.34 590.45 389.49 599.77 381.62 592.98 378.21 600.48 371.68 591.62 366.05 596.56 361.5 586.5 354.19 588.39 352.07 578.11 343.8 576.77 344.31 567.27 335.9 562.84 338.99 555.06 331.25 547.96 336.63 542.66 330.32 533.6 337.45 531.29 333.19 521.14 341.38 522.06 339.59 511.82 348.03 515.87"/><polygon class="cls-12" points="348.12 515.83 348.97 506.5 356.84 513.29 360.25 505.79 366.78 514.65 372.41 509.71 376.96 519.78 384.27 517.88 386.39 528.17 394.65 529.5 394.15 539 402.56 543.43 399.47 551.21 407.2 558.31 401.83 563.61 408.13 572.68 401.01 574.98 405.26 585.13 397.08 584.21 398.87 594.45 390.43 590.4 389.58 599.72 381.71 592.93 378.3 600.43 371.77 591.57 366.13 596.51 361.58 586.45 354.28 588.34 352.15 578.06 343.89 576.72 344.4 567.23 335.99 562.79 339.08 555.01 331.34 547.91 336.71 542.61 330.41 533.55 337.54 531.24 333.28 521.09 341.47 522.01 339.68 511.77 348.12 515.83"/><polygon class="cls-12" points="348.2 515.78 349.06 506.45 356.93 513.24 360.34 505.74 366.87 514.6 372.5 509.67 377.05 519.73 384.35 517.84 386.48 528.12 394.74 529.45 394.23 538.95 402.65 543.38 399.55 551.16 407.29 558.26 401.92 563.56 408.22 572.63 401.1 574.93 405.35 585.08 397.17 584.16 398.95 594.4 390.51 590.35 389.66 599.67 381.79 592.89 378.38 600.38 371.85 591.52 366.22 596.46 361.67 586.4 354.36 588.29 352.24 578.01 343.98 576.67 344.49 567.17 336.07 562.74 339.17 554.96 331.43 547.87 336.8 542.56 330.5 533.5 337.62 531.19 333.37 521.04 341.55 521.96 339.76 511.73 348.2 515.78"/><polygon class="cls-12" points="348.29 515.73 349.14 506.4 357.01 513.19 360.42 505.69 366.95 514.55 372.59 509.62 377.13 519.68 384.44 517.79 386.56 528.07 394.83 529.4 394.32 538.9 402.73 543.33 399.64 551.11 407.38 558.21 402 563.51 408.31 572.58 401.18 574.88 405.44 585.03 397.25 584.11 399.04 594.35 390.6 590.3 389.75 599.62 381.88 592.84 378.47 600.33 371.94 591.47 366.31 596.41 361.76 586.35 354.45 588.24 352.33 577.96 344.06 576.62 344.57 567.13 336.16 562.69 339.25 554.91 331.51 547.82 336.89 542.51 330.58 533.45 337.71 531.14 333.45 520.99 341.64 521.91 339.85 511.68 348.29 515.73"/><polygon class="cls-12" points="348.38 515.68 349.23 506.35 357.1 513.14 360.51 505.64 367.04 514.5 372.67 509.57 377.22 519.63 384.53 517.74 386.65 528.02 394.92 529.36 394.41 538.85 402.82 543.28 399.73 551.06 407.46 558.16 402.09 563.46 408.4 572.53 401.27 574.83 405.52 584.98 397.34 584.07 399.13 594.3 390.69 590.25 389.84 599.57 381.97 592.79 378.56 600.28 372.03 591.42 366.39 596.36 361.84 586.3 354.54 588.19 352.41 577.91 344.15 576.57 344.66 567.08 336.25 562.64 339.34 554.86 331.6 547.77 336.97 542.47 330.67 533.4 337.8 531.09 333.54 520.95 341.73 521.86 339.94 511.63 348.38 515.68"/><polygon class="cls-12" points="348.46 515.63 349.32 506.31 357.19 513.09 360.6 505.6 367.13 514.45 372.76 509.52 377.31 519.58 384.62 517.69 386.74 527.97 395 529.31 394.49 538.8 402.91 543.24 399.81 551.01 407.55 558.11 402.18 563.41 408.48 572.48 401.36 574.78 405.61 584.93 397.43 584.02 399.21 594.25 390.77 590.2 389.92 599.52 382.05 592.74 378.64 600.23 372.11 591.38 366.48 596.31 361.93 586.25 354.62 588.14 352.5 577.86 344.24 576.52 344.75 567.03 336.33 562.59 339.43 554.82 331.69 547.72 337.06 542.42 330.76 533.35 337.88 531.04 333.63 520.9 341.81 521.81 340.02 511.58 348.46 515.63"/><polygon class="cls-12" points="348.55 515.58 349.4 506.26 357.27 513.04 360.68 505.55 367.21 514.4 372.85 509.47 377.39 519.53 384.7 517.64 386.83 527.92 395.09 529.26 394.58 538.75 402.99 543.19 399.9 550.97 407.64 558.06 402.26 563.37 408.57 572.43 401.44 574.74 405.7 584.88 397.51 583.97 399.3 594.2 390.86 590.15 390.01 599.48 382.14 592.69 378.73 600.18 372.2 591.33 366.57 596.26 362.02 586.2 354.71 588.09 352.59 577.81 344.32 576.47 344.83 566.98 336.42 562.54 339.51 554.76 331.77 547.67 337.15 542.37 330.84 533.3 337.97 531 333.72 520.85 341.9 521.76 340.11 511.53 348.55 515.58"/><polygon class="cls-12" points="348.64 515.53 349.49 506.21 357.36 512.99 360.77 505.5 367.3 514.36 372.93 509.42 377.48 519.48 384.79 517.59 386.91 527.87 395.18 529.21 394.67 538.7 403.08 543.14 399.99 550.92 407.73 558.01 402.35 563.32 408.66 572.38 401.53 574.69 405.78 584.84 397.6 583.92 399.39 594.15 390.95 590.1 390.1 599.43 382.23 592.64 378.82 600.14 372.29 591.28 366.65 596.21 362.11 586.15 354.8 588.04 352.67 577.76 344.41 576.42 344.92 566.93 336.51 562.5 339.6 554.72 331.86 547.62 337.24 542.32 330.93 533.25 338.06 530.95 333.8 520.8 341.99 521.72 340.2 511.48 348.64 515.53"/><polygon class="cls-12" points="348.73 515.48 349.58 506.16 357.45 512.94 360.86 505.45 367.39 514.31 373.02 509.37 377.57 519.43 384.88 517.54 387 527.82 395.26 529.16 394.75 538.65 403.17 543.09 400.07 550.87 407.81 557.97 402.44 563.27 408.74 572.33 401.62 574.64 405.87 584.79 397.69 583.87 399.48 594.1 391.04 590.05 390.18 599.38 382.31 592.59 378.9 600.09 372.38 591.23 366.74 596.16 362.19 586.1 354.88 587.99 352.76 577.71 344.5 576.38 345.01 566.88 336.59 562.45 339.69 554.67 331.95 547.57 337.32 542.27 331.02 533.2 338.14 530.9 333.89 520.75 342.07 521.67 340.29 511.43 348.73 515.48"/><polygon class="cls-12" points="348.81 515.43 349.66 506.11 357.53 512.89 360.94 505.4 367.47 514.26 373.11 509.32 377.66 519.38 384.96 517.49 387.09 527.77 395.35 529.11 394.84 538.61 403.25 543.04 400.16 550.82 407.9 557.91 402.53 563.22 408.83 572.28 401.7 574.59 405.96 584.74 397.77 583.82 399.56 594.05 391.12 590 390.27 599.33 382.4 592.54 378.99 600.04 372.46 591.18 366.83 596.12 362.28 586.05 354.97 587.95 352.85 577.66 344.58 576.33 345.09 566.83 336.68 562.4 339.77 554.62 332.04 547.52 337.41 542.22 331.1 533.15 338.23 530.85 333.98 520.7 342.16 521.62 340.37 511.38 348.81 515.43"/><polygon class="cls-12" points="348.9 515.38 349.75 506.06 357.62 512.85 361.03 505.35 367.56 514.21 373.19 509.27 377.74 519.33 385.05 517.44 387.17 527.72 395.44 529.06 394.93 538.55 403.34 542.99 400.25 550.77 407.99 557.87 402.61 563.17 408.92 572.23 401.79 574.54 406.05 584.69 397.86 583.77 399.65 594.01 391.21 589.96 390.36 599.28 382.49 592.49 379.08 599.99 372.55 591.13 366.91 596.07 362.37 586 355.06 587.89 352.94 577.61 344.67 576.28 345.18 566.78 336.77 562.35 339.86 554.57 332.12 547.47 337.5 542.17 331.19 533.1 338.32 530.8 334.06 520.65 342.25 521.57 340.46 511.33 348.9 515.38"/><polygon class="cls-12" points="348.99 515.33 349.84 506.01 357.71 512.8 361.12 505.3 367.65 514.16 373.28 509.22 377.83 519.28 385.14 517.39 387.26 527.67 395.52 529.01 395.01 538.51 403.43 542.94 400.33 550.72 408.07 557.82 402.7 563.12 409 572.18 401.88 574.49 406.13 584.64 397.95 583.72 399.74 593.96 391.3 589.91 390.44 599.23 382.57 592.44 379.16 599.94 372.63 591.08 367 596.02 362.45 585.95 355.15 587.85 353.02 577.56 344.76 576.23 345.27 566.73 336.86 562.3 339.95 554.52 332.21 547.42 337.58 542.12 331.28 533.05 338.4 530.75 334.15 520.6 342.33 521.52 340.55 511.28 348.99 515.33"/><polygon class="cls-12" points="349.07 515.28 349.92 505.96 357.79 512.75 361.2 505.25 367.73 514.11 373.37 509.17 377.92 519.24 385.22 517.34 387.35 527.63 395.61 528.96 395.1 538.46 403.51 542.89 400.42 550.67 408.16 557.77 402.79 563.07 409.09 572.14 401.96 574.44 406.22 584.59 398.03 583.67 399.82 593.91 391.38 589.86 390.53 599.18 382.66 592.39 379.25 599.89 372.72 591.03 367.09 595.97 362.54 585.9 355.23 587.8 353.11 577.51 344.85 576.18 345.35 566.68 336.94 562.25 340.03 554.47 332.3 547.37 337.67 542.07 331.37 533 338.49 530.7 334.24 520.55 342.42 521.47 340.63 511.23 349.07 515.28"/><polygon class="cls-12" points="349.16 515.23 350.01 505.91 357.88 512.7 361.29 505.2 367.82 514.06 373.45 509.12 378 519.19 385.31 517.29 387.43 527.58 395.7 528.91 395.19 538.41 403.6 542.84 400.51 550.62 408.25 557.72 402.87 563.02 409.18 572.09 402.05 574.39 406.31 584.54 398.12 583.62 399.91 593.86 391.47 589.81 390.62 599.13 382.75 592.34 379.34 599.84 372.81 590.98 367.18 595.92 362.63 585.86 355.32 587.75 353.19 577.47 344.93 576.13 345.44 566.63 337.03 562.2 340.12 554.42 332.38 547.32 337.76 542.02 331.45 532.95 338.58 530.65 334.32 520.5 342.51 521.42 340.72 511.18 349.16 515.23"/><polygon class="cls-12" points="349.25 515.18 350.1 505.86 357.97 512.65 361.38 505.15 367.91 514.01 373.54 509.07 378.09 519.14 385.4 517.24 387.52 527.53 395.79 528.86 395.28 538.36 403.69 542.79 400.6 550.57 408.33 557.67 402.96 562.97 409.26 572.04 402.14 574.34 406.39 584.49 398.21 583.57 400 593.81 391.56 589.76 390.7 599.08 382.83 592.29 379.43 599.79 372.9 590.93 367.26 595.87 362.71 585.8 355.41 587.7 353.28 577.42 345.02 576.08 345.53 566.58 337.12 562.15 340.21 554.37 332.47 547.27 337.84 541.97 331.54 532.9 338.67 530.6 334.41 520.45 342.6 521.37 340.81 511.13 349.25 515.18"/><polygon class="cls-12" points="349.33 515.13 350.19 505.81 358.06 512.6 361.46 505.1 367.99 513.96 373.63 509.02 378.18 519.09 385.48 517.2 387.61 527.48 395.87 528.81 395.36 538.31 403.77 542.74 400.68 550.52 408.42 557.62 403.05 562.92 409.35 571.99 402.22 574.29 406.48 584.44 398.3 583.52 400.08 593.76 391.64 589.71 390.79 599.03 382.92 592.25 379.51 599.74 372.98 590.88 367.35 595.82 362.8 585.76 355.49 587.65 353.37 577.37 345.11 576.03 345.61 566.53 337.2 562.1 340.29 554.32 332.56 547.22 337.93 541.92 331.63 532.86 338.75 530.55 334.5 520.4 342.68 521.32 340.89 511.08 349.33 515.13"/><polygon class="cls-12" points="349.42 515.09 350.27 505.76 358.14 512.55 361.55 505.05 368.08 513.91 373.71 508.98 378.26 519.04 385.57 517.15 387.69 527.43 395.96 528.76 395.45 538.26 403.86 542.69 400.77 550.47 408.51 557.57 403.13 562.87 409.44 571.94 402.31 574.24 406.57 584.39 398.38 583.47 400.17 593.71 391.73 589.66 390.88 598.98 383.01 592.2 379.6 599.69 373.07 590.83 367.44 595.77 362.89 585.71 355.58 587.6 353.46 577.32 345.19 575.98 345.7 566.49 337.29 562.05 340.38 554.27 332.64 547.17 338.02 541.87 331.71 532.81 338.84 530.5 334.58 520.35 342.77 521.27 340.98 511.04 349.42 515.09"/><polygon class="cls-12" points="349.51 515.04 350.36 505.71 358.23 512.5 361.64 505 368.17 513.86 373.8 508.93 378.35 518.99 385.66 517.1 387.78 527.38 396.05 528.72 395.54 538.21 403.95 542.64 400.86 550.42 408.59 557.52 403.22 562.82 409.52 571.89 402.4 574.19 406.65 584.34 398.47 583.42 400.26 593.66 391.82 589.61 390.96 598.93 383.1 592.15 379.69 599.64 373.16 590.78 367.52 595.72 362.97 585.66 355.67 587.55 353.54 577.27 345.28 575.93 345.79 566.44 337.38 562 340.47 554.22 332.73 547.13 338.1 541.82 331.8 532.76 338.93 530.45 334.67 520.3 342.86 521.22 341.07 510.99 349.51 515.04"/><polygon class="cls-12" points="349.59 514.99 350.45 505.66 358.31 512.45 361.73 504.95 368.25 513.81 373.89 508.88 378.44 518.94 385.74 517.05 387.87 527.33 396.13 528.67 395.62 538.16 404.04 542.6 400.94 550.37 408.68 557.47 403.31 562.77 409.61 571.84 402.49 574.14 406.74 584.29 398.56 583.38 400.34 593.61 391.9 589.56 391.05 598.88 383.18 592.1 379.77 599.59 373.24 590.74 367.61 595.67 363.06 585.61 355.75 587.5 353.63 577.22 345.37 575.88 345.88 566.39 337.46 561.95 340.56 554.17 332.82 547.08 338.19 541.77 331.89 532.71 339.01 530.4 334.76 520.25 342.94 521.17 341.15 510.94 349.59 514.99"/><polygon class="cls-12" points="349.68 514.94 350.53 505.62 358.4 512.4 361.81 504.9 368.34 513.76 373.98 508.83 378.52 518.89 385.83 517 387.95 527.28 396.22 528.62 395.71 538.11 404.12 542.55 401.03 550.33 408.77 557.42 403.39 562.72 409.7 571.79 402.57 574.1 406.83 584.24 398.64 583.33 400.43 593.56 391.99 589.51 391.14 598.83 383.27 592.05 379.86 599.54 373.33 590.69 367.7 595.62 363.15 585.56 355.84 587.45 353.72 577.17 345.45 575.83 345.96 566.34 337.55 561.9 340.64 554.13 332.9 547.03 338.28 541.73 331.97 532.66 339.1 530.35 334.85 520.21 343.03 521.12 341.24 510.89 349.68 514.94"/><polygon class="cls-12" points="349.77 514.89 350.62 505.57 358.49 512.35 361.9 504.86 368.43 513.71 374.06 508.78 378.61 518.84 385.92 516.95 388.04 527.23 396.31 528.57 395.8 538.06 404.21 542.5 401.12 550.28 408.85 557.37 403.48 562.67 409.79 571.74 402.66 574.05 406.91 584.19 398.73 583.28 400.52 593.51 392.08 589.46 391.23 598.78 383.36 592 379.95 599.5 373.42 590.64 367.78 595.57 363.23 585.51 355.93 587.4 353.8 577.12 345.54 575.78 346.05 566.29 337.64 561.86 340.73 554.08 332.99 546.98 338.36 541.68 332.06 532.61 339.19 530.3 334.93 520.16 343.12 521.08 341.33 510.84 349.77 514.89"/><polygon class="cls-12" points="349.85 514.84 350.71 505.52 358.58 512.3 361.99 504.81 368.51 513.66 374.15 508.73 378.7 518.79 386 516.9 388.13 527.18 396.39 528.52 395.88 538.01 404.3 542.45 401.2 550.23 408.94 557.32 403.57 562.63 409.87 571.69 402.75 574 407 584.14 398.82 583.23 400.61 593.46 392.17 589.41 391.31 598.74 383.44 591.95 380.03 599.45 373.5 590.59 367.87 595.52 363.32 585.46 356.01 587.35 353.89 577.07 345.63 575.74 346.13 566.24 337.72 561.8 340.81 554.03 333.08 546.93 338.45 541.63 332.15 532.56 339.27 530.26 335.02 520.11 343.2 521.02 341.41 510.79 349.85 514.84"/><polygon class="cls-12" points="349.94 514.79 350.79 505.47 358.66 512.25 362.07 504.76 368.6 513.62 374.24 508.68 378.79 518.74 386.09 516.85 388.22 527.13 396.48 528.47 395.97 537.96 404.38 542.4 401.29 550.18 409.03 557.27 403.65 562.58 409.96 571.64 402.83 573.95 407.09 584.1 398.9 583.18 400.69 593.41 392.25 589.36 391.4 598.69 383.53 591.9 380.12 599.4 373.59 590.54 367.96 595.47 363.41 585.41 356.1 587.3 353.98 577.02 345.71 575.68 346.22 566.19 337.81 561.76 340.9 553.98 333.17 546.88 338.54 541.58 332.23 532.51 339.36 530.21 335.11 520.06 343.29 520.98 341.5 510.74 349.94 514.79"/><polygon class="cls-12" points="350.03 514.74 350.88 505.42 358.75 512.21 362.16 504.71 368.69 513.57 374.32 508.63 378.87 518.69 386.18 516.8 388.3 527.08 396.57 528.42 396.06 537.91 404.47 542.35 401.38 550.13 409.11 557.23 403.74 562.53 410.05 571.59 402.92 573.9 407.17 584.05 398.99 583.13 400.78 593.37 392.34 589.32 391.49 598.64 383.62 591.85 380.21 599.35 373.68 590.49 368.04 595.42 363.5 585.36 356.19 587.25 354.06 576.97 345.8 575.64 346.31 566.14 337.9 561.71 340.99 553.93 333.25 546.83 338.63 541.53 332.32 532.46 339.45 530.16 335.19 520.01 343.38 520.93 341.59 510.69 350.03 514.74"/><polygon class="cls-12" points="350.11 514.69 350.97 505.37 358.84 512.15 362.25 504.66 368.77 513.52 374.41 508.58 378.96 518.64 386.26 516.75 388.39 527.03 396.65 528.37 396.14 537.87 404.56 542.3 401.46 550.08 409.2 557.18 403.83 562.48 410.13 571.54 403.01 573.85 407.26 584 399.08 583.08 400.87 593.32 392.43 589.26 391.57 598.59 383.7 591.8 380.29 599.3 373.76 590.44 368.13 595.38 363.58 585.31 356.27 587.21 354.15 576.92 345.89 575.59 346.4 566.09 337.98 561.66 341.08 553.88 333.34 546.78 338.71 541.48 332.41 532.41 339.53 530.11 335.28 519.96 343.46 520.88 341.67 510.64 350.11 514.69"/><polygon class="cls-12" points="350.2 514.64 351.05 505.32 358.92 512.11 362.33 504.61 368.86 513.47 374.5 508.53 379.05 518.6 386.35 516.7 388.48 526.99 396.74 528.32 396.23 537.82 404.64 542.25 401.55 550.03 409.29 557.13 403.92 562.43 410.22 571.5 403.09 573.8 407.35 583.95 399.16 583.03 400.95 593.27 392.51 589.22 391.66 598.54 383.79 591.75 380.38 599.25 373.85 590.39 368.22 595.33 363.67 585.26 356.36 587.16 354.24 576.87 345.97 575.54 346.48 566.04 338.07 561.61 341.16 553.83 333.43 546.73 338.8 541.43 332.49 532.36 339.62 530.06 335.37 519.91 343.55 520.83 341.76 510.59 350.2 514.64"/><polygon class="cls-12" points="350.29 514.59 351.14 505.27 359.01 512.06 362.42 504.56 368.95 513.42 374.58 508.48 379.13 518.55 386.44 516.65 388.56 526.93 396.83 528.27 396.32 537.77 404.73 542.2 401.64 549.98 409.38 557.08 404 562.38 410.31 571.45 403.18 573.75 407.44 583.9 399.25 582.98 401.04 593.22 392.6 589.17 391.75 598.49 383.88 591.7 380.47 599.2 373.94 590.34 368.3 595.28 363.75 585.21 356.45 587.11 354.32 576.82 346.06 575.49 346.57 565.99 338.16 561.56 341.25 553.78 333.51 546.68 338.88 541.38 332.58 532.31 339.71 530.01 335.45 519.86 343.64 520.78 341.85 510.54 350.29 514.59"/><polygon class="cls-12" points="350.38 514.54 351.23 505.22 359.1 512.01 362.51 504.51 369.04 513.37 374.67 508.43 379.22 518.5 386.53 516.6 388.65 526.89 396.91 528.22 396.4 537.72 404.82 542.15 401.73 549.93 409.46 557.03 404.09 562.33 410.39 571.4 403.27 573.7 407.52 583.85 399.34 582.93 401.13 593.17 392.69 589.12 391.83 598.44 383.96 591.65 380.55 599.15 374.02 590.29 368.39 595.23 363.84 585.16 356.54 587.06 354.41 576.77 346.15 575.44 346.66 565.94 338.24 561.51 341.34 553.73 333.6 546.63 338.97 541.33 332.67 532.26 339.8 529.96 335.54 519.81 343.72 520.73 341.94 510.49 350.38 514.54"/><polygon class="cls-12" points="350.46 514.49 351.31 505.17 359.18 511.96 362.59 504.46 369.12 513.32 374.76 508.38 379.31 518.45 386.61 516.55 388.74 526.84 397 528.17 396.49 537.67 404.9 542.1 401.81 549.88 409.55 556.98 404.18 562.28 410.48 571.35 403.35 573.65 407.61 583.8 399.42 582.88 401.21 593.12 392.77 589.07 391.92 598.39 384.05 591.6 380.64 599.1 374.11 590.24 368.48 595.18 363.93 585.12 356.62 587.01 354.5 576.73 346.23 575.39 346.74 565.89 338.33 561.46 341.42 553.68 333.69 546.58 339.06 541.28 332.75 532.22 339.88 529.91 335.63 519.76 343.81 520.68 342.02 510.44 350.46 514.49"/><polygon class="cls-12" points="350.55 514.45 351.4 505.12 359.27 511.91 362.68 504.41 369.21 513.27 374.84 508.33 379.39 518.4 386.7 516.5 388.82 526.79 397.09 528.12 396.58 537.62 404.99 542.05 401.9 549.83 409.64 556.93 404.26 562.23 410.57 571.3 403.44 573.6 407.69 583.75 399.51 582.83 401.3 593.07 392.86 589.02 392.01 598.34 384.14 591.55 380.73 599.05 374.2 590.19 368.56 595.13 364.02 585.07 356.71 586.96 354.58 576.68 346.32 575.34 346.83 565.85 338.42 561.41 341.51 553.63 333.77 546.53 339.15 541.23 332.84 532.17 339.97 529.86 335.71 519.71 343.9 520.63 342.11 510.39 350.55 514.45"/><polygon class="cls-12" points="350.64 514.4 351.49 505.07 359.36 511.86 362.77 504.36 369.3 513.22 374.93 508.29 379.48 518.35 386.79 516.46 388.91 526.74 397.17 528.07 396.67 537.57 405.08 542 401.99 549.78 409.72 556.88 404.35 562.18 410.65 571.25 403.53 573.55 407.78 583.7 399.6 582.78 401.39 593.02 392.95 588.97 392.09 598.29 384.23 591.51 380.81 599 374.29 590.14 368.65 595.08 364.1 585.02 356.8 586.91 354.67 576.63 346.41 575.29 346.92 565.8 338.5 561.36 341.6 553.58 333.86 546.49 339.23 541.18 332.93 532.12 340.06 529.81 335.8 519.66 343.98 520.58 342.2 510.35 350.64 514.4"/><polygon class="cls-12" points="350.72 514.35 351.57 505.02 359.44 511.81 362.86 504.31 369.38 513.17 375.02 508.24 379.57 518.3 386.87 516.41 389 526.69 397.26 528.02 396.75 537.52 405.16 541.95 402.07 549.73 409.81 556.83 404.44 562.13 410.74 571.2 403.61 573.5 407.87 583.65 399.69 582.73 401.47 592.97 393.03 588.92 392.18 598.24 384.31 591.46 380.9 598.95 374.37 590.09 368.74 595.03 364.19 584.97 356.88 586.86 354.76 576.58 346.5 575.24 347 565.75 338.59 561.31 341.68 553.53 333.95 546.44 339.32 541.13 333.01 532.07 340.14 529.76 335.89 519.62 344.07 520.53 342.28 510.3 350.72 514.35"/><polygon class="cls-12" points="350.81 514.3 351.66 504.97 359.53 511.76 362.94 504.26 369.47 513.12 375.1 508.19 379.65 518.25 386.96 516.36 389.08 526.64 397.35 527.98 396.84 537.47 405.25 541.9 402.16 549.68 409.9 556.78 404.52 562.08 410.83 571.15 403.7 573.45 407.96 583.6 399.77 582.68 401.56 592.92 393.12 588.87 392.27 598.19 384.4 591.41 380.99 598.9 374.46 590.04 368.82 594.98 364.28 584.92 356.97 586.81 354.85 576.53 346.58 575.19 347.09 565.7 338.68 561.26 341.77 553.48 334.03 546.39 339.41 541.09 333.1 532.02 340.23 529.71 335.97 519.57 344.16 520.48 342.37 510.25 350.81 514.3"/><polygon class="cls-12" points="350.9 514.25 351.75 504.93 359.62 511.71 363.03 504.21 369.56 513.07 375.19 508.14 379.74 518.2 387.05 516.31 389.17 526.59 397.44 527.93 396.93 537.42 405.34 541.86 402.25 549.63 409.98 556.73 404.61 562.03 410.92 571.1 403.79 573.4 408.04 583.55 399.86 582.64 401.65 592.87 393.21 588.82 392.36 598.14 384.49 591.36 381.07 598.85 374.55 590 368.91 594.93 364.36 584.87 357.06 586.76 354.93 576.48 346.67 575.14 347.18 565.65 338.76 561.21 341.86 553.43 334.12 546.34 339.49 541.04 333.19 531.97 340.32 529.66 336.06 519.52 344.25 520.43 342.46 510.2 350.9 514.25"/><polygon class="cls-12" points="350.98 514.2 351.83 504.88 359.7 511.66 363.12 504.17 369.64 513.02 375.28 508.09 379.83 518.15 387.13 516.26 389.26 526.54 397.52 527.88 397.01 537.37 405.43 541.81 402.33 549.59 410.07 556.68 404.7 561.99 411 571.05 403.88 573.36 408.13 583.5 399.94 582.59 401.73 592.82 393.29 588.77 392.44 598.1 384.57 591.31 381.16 598.8 374.63 589.95 369 594.88 364.45 584.82 357.14 586.71 355.02 576.43 346.75 575.09 347.26 565.6 338.85 561.16 341.94 553.38 334.21 546.29 339.58 540.99 333.27 531.92 340.4 529.62 336.15 519.47 344.33 520.38 342.54 510.15 350.98 514.2"/><polygon class="cls-12" points="351.07 514.15 351.92 504.83 359.79 511.61 363.2 504.12 369.73 512.98 375.37 508.04 379.91 518.1 387.22 516.21 389.35 526.49 397.61 527.83 397.1 537.32 405.51 541.76 402.42 549.54 410.16 556.63 404.78 561.93 411.09 571 403.96 573.31 408.22 583.46 400.03 582.54 401.82 592.77 393.38 588.72 392.53 598.05 384.66 591.26 381.25 598.76 374.72 589.9 369.09 594.83 364.54 584.77 357.23 586.66 355.11 576.38 346.84 575.04 347.35 565.55 338.94 561.12 342.03 553.34 334.29 546.24 339.67 540.94 333.36 531.87 340.49 529.57 336.24 519.42 344.42 520.34 342.63 510.1 351.07 514.15"/><g id="UmhEq9.tif"><path class="cls-13" d="M375.66,556.4c-1.85-2.17-2.29-3.84-1.5-5.34.88-1.68,2.63-1.84,4.44-.42,3,2.37,4.45,6.49,3.26,9.49-1.49,3.75-6.06,4.1-10.13.78-5.5-4.49-8.18-13.11-5.84-18.79s8.88-7,15.14-3.06c9.15,5.71,14.83,18.83,12.38,28.62-2.11,8.45-9.92,12.08-18.66,8.67-10.68-4.17-19.87-17.09-21.42-30.19-1.16-9.85,1.39-16.78,7.15-21.13a14.54,14.54,0,0,1,6.94-2.74,3.24,3.24,0,0,1,3.24,1.78c1.44,2.28,1,4.27-.87,4.83a21.5,21.5,0,0,0-5.46,2.18c-7.63,4.86-7.83,18.41-.53,29.71,6.68,10.33,17.91,13.49,22.9,6.45,3.16-4.45,2.12-12.39-2.43-18.54-4.16-5.63-10.65-7-13.08-2.74-1.34,2.36-.68,6.4,1.49,8.95C373.56,556,374.52,556.67,375.66,556.4Z"/></g><circle class="cls-14" cx="633.44" cy="639.4" r="90.28"/><circle class="cls-14" cx="633.44" cy="639.4" r="69.76"/><circle class="cls-14" cx="633.44" cy="639.4" r="49.33"/><circle class="cls-14" cx="633.44" cy="639.4" r="27.87"/><circle class="cls-14" cx="500.75" cy="667" r="90.28"/><circle class="cls-14" cx="500.75" cy="667" r="69.76"/><circle class="cls-14" cx="500.75" cy="667" r="49.33"/><circle class="cls-14" cx="500.75" cy="667" r="27.87"/><circle class="cls-14" cx="408.04" cy="633.67" r="69.76"/><circle class="cls-14" cx="408.04" cy="633.67" r="49.33"/><circle class="cls-14" cx="408.04" cy="633.67" r="27.87"/><circle class="cls-14" cx="408.04" cy="633.67" r="11.76"/><path class="cls-15" d="M538.41,648.37c-129.22,0-234.27-43-236.91-96.45,0,1.34-.07,2.69-.07,4,0,109.49,106.1,198.26,237,198.26s237-88.77,237-198.26c0-1.35,0-2.7-.07-4C772.68,605.38,667.63,648.37,538.41,648.37Z"/></svg>